<svg xmlns="http://www.w3.org/2000/svg" viewBox="0 0 456 731" width="456" height="731" preserveAspectRatio="xMidYMid meet" style="width: 100%; height: 100%; transform: translate3d(0px, 0px, 0px);"><defs><clipPath id="__lottie_element_3"><rect width="456" height="731" x="0" y="0"></rect></clipPath></defs><g clip-path="url(#__lottie_element_3)"><g style="display: block;" transform="matrix(1,0,0,1,3.764007568359375,549.9039916992188)" opacity="1"><g opacity="1" transform="matrix(1,0,0,1,221.78199768066406,85.40699768066406)"><path fill="rgb(29,36,44)" fill-opacity="1" d=" M-201.37600708007812,-85.40599822998047 C-201.37600708007812,-85.40599822998047 -221.781005859375,-73.38200378417969 -221.781005859375,-73.38200378417969 C-221.781005859375,-73.38200378417969 34.73400115966797,73.37200164794922 34.73400115966797,73.37200164794922 C34.73400115966797,73.37200164794922 50.28099822998047,82.51499938964844 50.28099822998047,82.51499938964844 C50.28099822998047,82.51499938964844 55.625,85.40599822998047 55.625,85.40599822998047 C55.625,85.40599822998047 221.781005859375,-9.86400032043457 221.781005859375,-9.86400032043457 C221.781005859375,-9.86400032043457 200.8939971923828,-21.898000717163086 200.8939971923828,-21.898000717163086 C200.8939971923828,-21.898000717163086 55.625,61.82899856567383 55.625,61.82899856567383 C55.625,61.82899856567383 -201.37600708007812,-85.40599822998047 -201.37600708007812,-85.40599822998047z"></path></g></g><g style="display: block;" transform="matrix(1,0,0,1,7.647003173828125,499.97198486328125)" opacity="1"><g opacity="1" transform="matrix(1,0,0,1,220.41299438476562,85.01399993896484)"><path fill="rgb(29,36,44)" fill-opacity="1" d=" M55.52299880981445,61.36399841308594 C55.52299880981445,61.36399841308594 -199.88499450683594,-84.76399993896484 -199.88499450683594,-84.76399993896484 C-199.88499450683594,-84.76399993896484 -220.16299438476562,-72.8239974975586 -220.16299438476562,-72.8239974975586 C-220.16299438476562,-72.8239974975586 35.24599838256836,73.3030014038086 35.24599838256836,73.3030014038086 C35.24599838256836,73.3030014038086 50.21200180053711,81.89800262451172 50.21200180053711,81.89800262451172 C50.21200180053711,81.89800262451172 55.52299880981445,84.76399993896484 55.52299880981445,84.76399993896484 C55.52299880981445,84.76399993896484 220.16299438476562,-9.788000106811523 220.16299438476562,-9.788000106811523 C220.16299438476562,-9.788000106811523 199.40199279785156,-21.72800064086914 199.40199279785156,-21.72800064086914 C199.40199279785156,-21.72800064086914 55.52299880981445,61.36399841308594 55.52299880981445,61.36399841308594z"></path></g></g><g style="display: block;" transform="matrix(1,0,0,1,7.6469879150390625,448.8759765625)" opacity="1"><g opacity="1" transform="matrix(1,0,0,1,220.6540069580078,85.01399993896484)"><path fill="rgb(29,36,44)" fill-opacity="1" d=" M54.79899978637695,60.88600158691406 C54.79899978637695,60.88600158691406 -200.12600708007812,-84.76399993896484 -200.12600708007812,-84.76399993896484 C-200.12600708007812,-84.76399993896484 -220.4040069580078,-72.82599639892578 -220.4040069580078,-72.82599639892578 C-220.4040069580078,-72.82599639892578 34.520999908447266,73.302001953125 34.520999908447266,73.302001953125 C34.520999908447266,73.302001953125 49.487998962402344,81.89800262451172 49.487998962402344,81.89800262451172 C49.487998962402344,81.89800262451172 54.79899978637695,84.76399993896484 54.79899978637695,84.76399993896484 C54.79899978637695,84.76399993896484 220.4040069580078,-9.791000366210938 220.4040069580078,-9.791000366210938 C220.4040069580078,-9.791000366210938 199.64300537109375,-21.729000091552734 199.64300537109375,-21.729000091552734 C199.64300537109375,-21.729000091552734 54.79899978637695,60.88600158691406 54.79899978637695,60.88600158691406z"></path></g></g><g style="display: block;" transform="matrix(1,0,0,1,7.6469879150390625,398.2550048828125)" opacity="1"><g opacity="1" transform="matrix(1,0,0,1,220.6540069580078,85.01399993896484)"><path fill="rgb(29,36,44)" fill-opacity="1" d=" M55.28200149536133,61.3650016784668 C55.28200149536133,61.3650016784668 -200.12600708007812,-84.76399993896484 -200.12600708007812,-84.76399993896484 C-200.12600708007812,-84.76399993896484 -220.4040069580078,-72.82499694824219 -220.4040069580078,-72.82499694824219 C-220.4040069580078,-72.82499694824219 34.520999908447266,72.82599639892578 34.520999908447266,72.82599639892578 C34.520999908447266,72.82599639892578 49.97100067138672,81.89900207519531 49.97100067138672,81.89900207519531 C49.97100067138672,81.89900207519531 55.28200149536133,84.76399993896484 55.28200149536133,84.76399993896484 C55.28200149536133,84.76399993896484 220.4040069580078,-9.789999961853027 220.4040069580078,-9.789999961853027 C220.4040069580078,-9.789999961853027 199.64300537109375,-21.729000091552734 199.64300537109375,-21.729000091552734 C199.64300537109375,-21.729000091552734 55.28200149536133,61.3650016784668 55.28200149536133,61.3650016784668z"></path></g></g><g style="display: block;" transform="matrix(1,0,0,1,7.6469879150390625,347.1579895019531)" opacity="1"><g opacity="1" transform="matrix(1,0,0,1,220.6540069580078,85.01399993896484)"><path fill="rgb(29,36,44)" fill-opacity="1" d=" M49.48899841308594,81.89900207519531 C49.48899841308594,81.89900207519531 54.79999923706055,84.76399993896484 54.79999923706055,84.76399993896484 C54.79999923706055,84.76399993896484 220.4040069580078,-9.788000106811523 220.4040069580078,-9.788000106811523 C220.4040069580078,-9.788000106811523 199.64300537109375,-21.726999282836914 199.64300537109375,-21.726999282836914 C199.64300537109375,-21.726999282836914 54.79999923706055,60.88600158691406 54.79999923706055,60.88600158691406 C54.79999923706055,60.88600158691406 -200.12600708007812,-84.76399993896484 -200.12600708007812,-84.76399993896484 C-200.12600708007812,-84.76399993896484 -220.4040069580078,-72.82499694824219 -220.4040069580078,-72.82499694824219 C-220.4040069580078,-72.82499694824219 34.520999908447266,73.302001953125 34.520999908447266,73.302001953125 C34.520999908447266,73.302001953125 49.48899841308594,81.89900207519531 49.48899841308594,81.89900207519531z"></path></g></g><g style="display: block;" transform="matrix(1,0,0,1,9.442001342773438,297.87701416015625)" opacity="1"><g opacity="1" transform="matrix(1,0,0,1,220.10299682617188,84.80999755859375)"><path fill="rgb(29,36,44)" fill-opacity="1" d=" M55.44599914550781,61.215999603271484 C55.44599914550781,61.215999603271484 -199.60299682617188,-84.55999755859375 -199.60299682617188,-84.55999755859375 C-199.60299682617188,-84.55999755859375 -219.85299682617188,-72.6500015258789 -219.85299682617188,-72.6500015258789 C-219.85299682617188,-72.6500015258789 35.19599914550781,73.1259994506836 35.19599914550781,73.1259994506836 C35.19599914550781,73.1259994506836 50.141998291015625,81.70099639892578 50.141998291015625,81.70099639892578 C50.141998291015625,81.70099639892578 55.44599914550781,84.55999755859375 55.44599914550781,84.55999755859375 C55.44599914550781,84.55999755859375 219.85299682617188,-9.765999794006348 219.85299682617188,-9.765999794006348 C219.85299682617188,-9.765999794006348 199.1219940185547,-21.676000595092773 199.1219940185547,-21.676000595092773 C199.1219940185547,-21.676000595092773 55.44599914550781,61.215999603271484 55.44599914550781,61.215999603271484z"></path></g></g><g style="display: block;" transform="matrix(1,0,0,1,9.443008422851562,246.90200805664062)" opacity="1"><g opacity="1" transform="matrix(1,0,0,1,220.343994140625,84.80999755859375)"><path fill="rgb(29,36,44)" fill-opacity="1" d=" M54.72200012207031,60.7400016784668 C54.72200012207031,60.7400016784668 -199.84500122070312,-84.55899810791016 -199.84500122070312,-84.55899810791016 C-199.84500122070312,-84.55899810791016 -220.093994140625,-72.64900207519531 -220.093994140625,-72.64900207519531 C-220.093994140625,-72.64900207519531 34.47200012207031,73.12799835205078 34.47200012207031,73.12799835205078 C34.47200012207031,73.12799835205078 49.417999267578125,81.7020034790039 49.417999267578125,81.7020034790039 C49.417999267578125,81.7020034790039 54.72200012207031,84.55899810791016 54.72200012207031,84.55899810791016 C54.72200012207031,84.55899810791016 220.093994140625,-9.765000343322754 220.093994140625,-9.765000343322754 C220.093994140625,-9.765000343322754 199.36199951171875,-21.674999237060547 199.36199951171875,-21.674999237060547 C199.36199951171875,-21.674999237060547 54.72200012207031,60.7400016784668 54.72200012207031,60.7400016784668z"></path></g></g><g style="display: block;" transform="matrix(1,0,0,1,9.440994262695312,196.40499877929688)" opacity="1"><g opacity="1" transform="matrix(1,0,0,1,220.343994140625,84.80999755859375)"><path fill="rgb(29,36,44)" fill-opacity="1" d=" M55.20500183105469,61.215999603271484 C55.20500183105469,61.215999603271484 -199.843994140625,-84.55999755859375 -199.843994140625,-84.55999755859375 C-199.843994140625,-84.55999755859375 -220.093994140625,-72.6510009765625 -220.093994140625,-72.6510009765625 C-220.093994140625,-72.6510009765625 34.47200012207031,72.6500015258789 34.47200012207031,72.6500015258789 C34.47200012207031,72.6500015258789 49.900001525878906,81.70099639892578 49.900001525878906,81.70099639892578 C49.900001525878906,81.70099639892578 55.20500183105469,84.55999755859375 55.20500183105469,84.55999755859375 C55.20500183105469,84.55999755859375 220.093994140625,-9.765999794006348 220.093994140625,-9.765999794006348 C220.093994140625,-9.765999794006348 199.36099243164062,-21.677000045776367 199.36099243164062,-21.677000045776367 C199.36099243164062,-21.677000045776367 55.20500183105469,61.215999603271484 55.20500183105469,61.215999603271484z"></path></g></g><g style="display: block;" transform="matrix(1,0,0,1,9.442001342773438,145.4300079345703)" opacity="1"><g opacity="1" transform="matrix(1,0,0,1,220.343994140625,84.80999755859375)"><path fill="rgb(29,36,44)" fill-opacity="1" d=" M49.41899871826172,81.70099639892578 C49.41899871826172,81.70099639892578 54.72200012207031,84.55899810791016 54.72200012207031,84.55899810791016 C54.72200012207031,84.55899810791016 220.093994140625,-9.765999794006348 220.093994140625,-9.765999794006348 C220.093994140625,-9.765999794006348 199.36099243164062,-21.676000595092773 199.36099243164062,-21.676000595092773 C199.36099243164062,-21.676000595092773 54.72200012207031,60.7400016784668 54.72200012207031,60.7400016784668 C54.72200012207031,60.7400016784668 -199.843994140625,-84.55899810791016 -199.843994140625,-84.55899810791016 C-199.843994140625,-84.55899810791016 -220.093994140625,-72.6500015258789 -220.093994140625,-72.6500015258789 C-220.093994140625,-72.6500015258789 34.47200012207031,73.1259994506836 34.47200012207031,73.1259994506836 C34.47200012207031,73.1259994506836 49.41899871826172,81.70099639892578 49.41899871826172,81.70099639892578z"></path></g></g><g style="display: block;" transform="matrix(1,0,0,1,8.959991455078125,9.180992126464844)" opacity="1"><g opacity="1" transform="matrix(1,0,0,1,220.343994140625,126.49500274658203)"><path fill="rgb(29,36,44)" fill-opacity="1" d=" M-52.3120002746582,30.01300048828125 C-23.384000778198242,46.6870002746582 23.864999771118164,46.6870002746582 52.792999267578125,30.01300048828125 C81.72100067138672,13.34000015258789 81.23899841308594,-13.33899974822998 52.31100082397461,-30.01300048828125 C23.382999420166016,-46.6870002746582 -23.865999221801758,-46.6870002746582 -52.79399871826172,-30.01300048828125 C-81.72200012207031,-13.33899974822998 -81.72200012207031,13.34000015258789 -52.3120002746582,30.01300048828125z M-40.257999420166016,19.531999588012695 C-40.257999420166016,19.531999588012695 -33.507999420166016,15.720999717712402 -33.507999420166016,15.720999717712402 C-37.84700012207031,12.38599967956543 -40.25899887084961,9.052000045776367 -40.74100112915039,5.239999771118164 C-41.222999572753906,1.906000018119812 -38.8120002746582,-1.4279999732971191 -33.99100112915039,-4.763000011444092 C-33.027000427246094,-5.238999843597412 -31.097000122070312,-5.238999843597412 -30.132999420166016,-4.763000011444092 C-30.132999420166016,-4.763000011444092 -20.007999420166016,0.953000009059906 -20.007999420166016,0.953000009059906 C-19.04400062561035,1.4299999475479126 -19.045000076293945,2.382999897003174 -19.527000427246094,2.8589999675750732 C-21.937999725341797,4.288000106811523 -22.902000427246094,5.7170000076293945 -22.902000427246094,7.145999908447266 C-22.902000427246094,9.052000045776367 -21.937999725341797,10.479999542236328 -19.527000427246094,11.909000396728516 C-17.597999572753906,12.86299991607666 -15.668999671936035,13.33899974822998 -13.258000373840332,13.33899974822998 C-10.847999572753906,13.33899974822998 -8.920000076293945,12.86299991607666 -6.991000175476074,11.432999610900879 C-5.063000202178955,10.003999710083008 -3.615999937057495,9.052000045776367 -3.615999937057495,7.622000217437744 C-3.615999937057495,6.192999839782715 -4.098999977111816,4.764999866485596 -5.545000076293945,2.382999897003174 C-9.402000427246094,-2.8580000400543213 -11.812000274658203,-7.145999908447266 -11.812000274658203,-10.005000114440918 C-12.293999671936035,-13.33899974822998 -9.883999824523926,-16.195999145507812 -4.580999851226807,-19.05500030517578 C0.23999999463558197,-21.913000106811523 5.544000148773193,-22.867000579833984 11.329999923706055,-22.867000579833984 C16.632999420166016,-22.867000579833984 22.41900062561035,-21.437000274658203 27.239999771118164,-19.5310001373291 C27.239999771118164,-19.5310001373291 34.472999572753906,-23.81999969482422 34.472999572753906,-23.81999969482422 C35.4370002746582,-24.29599952697754 36.882999420166016,-24.29599952697754 37.84600067138672,-23.81999969482422 C37.84600067138672,-23.81999969482422 43.632999420166016,-20.483999252319336 43.632999420166016,-20.483999252319336 C44.59600067138672,-19.05500030517578 44.59600067138672,-18.10300064086914 43.632999420166016,-17.62700080871582 C43.632999420166016,-17.62700080871582 36.400001525878906,-13.33899974822998 36.400001525878906,-13.33899974822998 C39.775001525878906,-10.480999946594238 41.22100067138672,-7.144999980926514 40.7400016784668,-4.2870001792907715 C40.257999420166016,-1.4279999732971191 38.32899856567383,1.4290000200271606 33.9900016784668,4.2870001792907715 C33.025001525878906,4.763999938964844 31.097000122070312,4.763999938964844 30.132999420166016,4.2870001792907715 C30.132999420166016,4.2870001792907715 20.007999420166016,-1.4290000200271606 20.007999420166016,-1.4290000200271606 C19.04400062561035,-1.906000018119812 19.04400062561035,-2.8580000400543213 19.525999069213867,-3.3340001106262207 C21.454999923706055,-4.763000011444092 22.41900062561035,-5.7170000076293945 22.900999069213867,-7.145999908447266 C23.382999420166016,-8.574999809265137 22.41900062561035,-10.003999710083008 20.489999771118164,-10.956000328063965 C18.56100082397461,-11.909000396728516 16.632999420166016,-12.385000228881836 14.222000122070312,-12.385000228881836 C12.293999671936035,-12.385000228881836 9.883999824523926,-11.434000015258789 8.435999870300293,-10.480999946594238 C6.508999824523926,-9.527999877929688 5.544000148773193,-8.098999977111816 5.544000148773193,-7.145999908447266 C5.544000148773193,-5.7170000076293945 6.026000022888184,-4.288000106811523 7.4720001220703125,-1.906000018119812 C11.329999923706055,3.3350000381469727 13.258000373840332,7.623000144958496 13.258000373840332,10.958000183105469 C13.739999771118164,14.293000221252441 11.329999923706055,17.149999618530273 6.026000022888184,20.007999420166016 C1.2050000429153442,22.867000579833984 -4.0980000495910645,24.29599952697754 -9.883000373840332,23.81999969482422 C-14.704999923706055,23.81999969482422 -20.009000778198242,22.867000579833984 -24.347999572753906,20.961000442504883 C-24.347999572753906,20.961000442504883 -31.097999572753906,24.773000717163086 -31.097999572753906,24.773000717163086 C-32.0629997253418,25.25 -33.50899887084961,25.25 -34.472999572753906,24.773000717163086 C-34.472999572753906,24.773000717163086 -40.257999420166016,21.437999725341797 -40.257999420166016,21.437999725341797 C-41.22200012207031,20.961999893188477 -41.22200012207031,20.007999420166016 -40.257999420166016,19.531999588012695z"></path></g><g opacity="1" transform="matrix(1,0,0,1,220.8260040283203,126.49500274658203)"><path fill="rgb(29,36,44)" fill-opacity="1" d=" M-217.2010040283203,-26.20199966430664 C-217.2010040283203,-26.20199966430664 46.5260009765625,124.33899688720703 46.5260009765625,124.33899688720703 C50.38399887084961,126.24500274658203 56.16899871826172,126.24500274658203 59.54399871826172,124.33899688720703 C59.54399871826172,124.33899688720703 216.72000122070312,33.82400131225586 216.72000122070312,33.82400131225586 C220.5760040283203,31.91900062561035 220.5760040283203,28.583999633789062 217.2010040283203,26.67799949645996 C217.2010040283203,26.67799949645996 -47.007999420166016,-124.33899688720703 -47.007999420166016,-124.33899688720703 C-50.8650016784668,-126.24500274658203 -56.650001525878906,-126.24500274658203 -60.025001525878906,-124.33899688720703 C-60.025001525878906,-124.33899688720703 -217.2010040283203,-33.82400131225586 -217.2010040283203,-33.82400131225586 C-220.5760040283203,-31.917999267578125 -220.5760040283203,-28.58300018310547 -217.2010040283203,-26.20199966430664z M-150.1840057373047,-43.827999114990234 C-151.63099670410156,-44.78099822998047 -153.07699584960938,-45.25699996948242 -155.00599670410156,-46.209999084472656 C-155.00599670410156,-46.209999084472656 -81.72100067138672,-88.13300323486328 -81.72100067138672,-88.13300323486328 C-80.75700378417969,-87.18000030517578 -79.30999755859375,-86.22699737548828 -77.86399841308594,-85.27400207519531 C-64.36499786376953,-77.6520004272461 -42.667999267578125,-77.6520004272461 -29.16900062561035,-85.27400207519531 C-27.722999572753906,-86.22699737548828 -26.275999069213867,-87.18000030517578 -25.312000274658203,-88.13300323486328 C-25.312000274658203,-88.13300323486328 153.0780029296875,13.815999984741211 153.0780029296875,13.815999984741211 C150.66700744628906,14.767999649047852 148.2570037841797,15.720999717712402 146.3280029296875,16.673999786376953 C132.8280029296875,24.29599952697754 132.8280029296875,36.68299865722656 146.3280029296875,44.30500030517578 C148.2570037841797,45.73400115966797 150.66700744628906,46.6870002746582 153.0780029296875,47.16299819946289 C153.0780029296875,47.16299819946289 79.31199645996094,89.56199645996094 79.31199645996094,89.56199645996094 C77.86499786376953,88.13300323486328 75.93699645996094,86.7040023803711 74.00800323486328,85.7509994506836 C60.507999420166016,78.12899780273438 38.8129997253418,78.12899780273438 25.312999725341797,85.7509994506836 C24.347999572753906,86.22799682617188 23.384000778198242,87.18000030517578 22.420000076293945,87.65699768066406 C22.420000076293945,87.65699768066406 -155.00599670410156,-13.8149995803833 -155.00599670410156,-13.8149995803833 C-153.07699584960938,-14.291999816894531 -151.63099670410156,-15.244999885559082 -150.1840057373047,-16.19700050354004 C-136.6840057373047,-23.81999969482422 -136.6840057373047,-36.20600128173828 -150.1840057373047,-43.827999114990234z"></path></g></g></g></svg>
