<svg width="212" height="95" viewBox="0 0 212 95" fill="none" xmlns="http://www.w3.org/2000/svg">
<g clip-path="url(#clip0)">
<path d="M47.5666 68.1862H33.213V56.1855H47.5666C48.3768 56.1481 49.1862 56.2762 49.9458 56.5622C50.7054 56.8481 51.3994 57.2859 51.986 57.8491C52.5725 58.4124 53.0394 59.0893 53.3583 59.8391C53.6773 60.5889 53.8418 61.3959 53.8418 62.2113C53.8418 63.0268 53.6773 63.8338 53.3583 64.5836C53.0394 65.3334 52.5725 66.0103 51.986 66.5735C51.3994 67.1368 50.7054 67.5746 49.9458 67.8605C49.1862 68.1465 48.3768 68.2746 47.5666 68.2371V68.1862ZM33.213 34.1822H46.3895C47.9314 34.2535 49.3866 34.9194 50.4527 36.0417C51.5187 37.1639 52.1136 38.6561 52.1136 40.208C52.1136 41.7599 51.5187 43.252 50.4527 44.3743C49.3866 45.4965 47.9314 46.1625 46.3895 46.2338H33.213V34.1822ZM61.5531 49.8225C63.3495 47.467 64.454 44.6529 64.7416 41.6988C65.0291 38.7446 64.4881 35.7686 63.18 33.1076C61.8719 30.4467 59.8488 28.2072 57.3399 26.6428C54.831 25.0784 51.9365 24.2515 48.9843 24.2559H20.0366V78.0744H51.5284C54.8003 78.0838 57.9947 77.0732 60.6716 75.1815C63.3486 73.2899 65.3763 70.6104 66.4758 67.512C67.5752 64.4136 67.6921 61.0487 66.8106 57.8807C65.929 54.7127 64.0922 51.8974 61.5531 49.8225" fill="#00377B"/>
<path d="M110.12 14.6858C110.141 15.6058 109.951 16.5182 109.565 17.3524C109.178 18.1866 108.606 18.9202 107.892 19.4963C106.266 20.7928 104.232 21.461 102.159 21.3797C100.168 21.4415 98.2153 20.8273 96.6146 19.6363C95.8807 19.0656 95.2683 18.3525 94.8139 17.5393C94.3595 16.726 94.0722 15.8292 93.9692 14.9022H99.8676C100.014 15.4179 100.328 15.8697 100.759 16.1856C101.19 16.5015 101.714 16.6634 102.247 16.6456C102.879 16.6718 103.499 16.4685 103.994 16.073C104.215 15.8978 104.392 15.673 104.51 15.4166C104.629 15.1602 104.686 14.8794 104.677 14.5967C104.685 14.3229 104.628 14.0511 104.511 13.8035C104.395 13.5558 104.222 13.3393 104.007 13.1714C103.469 12.787 102.817 12.5985 102.159 12.6369H100.159V8.48824H102.007C102.639 8.52157 103.266 8.34739 103.791 7.99192C104.004 7.84163 104.176 7.64113 104.293 7.40809C104.41 7.17506 104.468 6.91666 104.462 6.65569C104.474 6.38068 104.424 6.10652 104.317 5.85329C104.21 5.60006 104.047 5.37418 103.842 5.19219C103.368 4.80581 102.768 4.61073 102.159 4.64497C101.833 4.63483 101.509 4.69424 101.208 4.81928C100.907 4.94432 100.635 5.13214 100.412 5.37035C100.121 5.70239 99.9125 6.09937 99.8043 6.52843H94.1718C94.4051 4.6519 95.3423 2.93577 96.7919 1.7307C98.3814 0.587971 100.291 -0.017894 102.245 0.00040253C104.199 0.0186991 106.097 0.660215 107.665 1.83251C108.363 2.39738 108.922 3.11815 109.295 3.93767C109.669 4.7572 109.847 5.65294 109.816 6.55388C109.847 7.3463 109.666 8.13245 109.292 8.83067C108.918 9.5289 108.365 10.1137 107.69 10.5244C108.453 10.9198 109.087 11.5267 109.518 12.2732C109.949 13.0197 110.158 13.8746 110.12 14.7367" fill="#00377B"/>
<path d="M20.1507 13.9732V7.3811H0V95H20.1507V88.3824H6.53125V13.9732H20.1507Z" fill="#00377B"/>
<path d="M66.9834 88.3824V95H87.1341V7.3811H66.9834V13.9732H80.6028V88.3824H66.9834Z" fill="#00377B"/>
<path d="M134.233 77.1199C135.129 77.1625 136.009 76.8676 136.701 76.2928C137.006 76.019 137.247 75.6808 137.407 75.3024C137.567 74.9239 137.641 74.5147 137.625 74.1039C137.642 73.7011 137.566 73.2998 137.404 72.9312C137.241 72.5626 136.996 72.2366 136.688 71.9786C135.966 71.4185 135.067 71.1384 134.157 71.1896H128.524V77.1199H134.233ZM128.575 70.2861H134.144C134.548 70.3029 134.95 70.2384 135.329 70.0964C135.707 69.9543 136.053 69.7375 136.347 69.4589C136.629 69.1794 136.85 68.8438 136.996 68.4735C137.142 68.1031 137.21 67.7062 137.195 67.3082C137.212 66.9182 137.14 66.5295 136.984 66.172C136.828 65.8146 136.593 65.4979 136.296 65.2465C135.591 64.7019 134.715 64.4308 133.828 64.483H128.575V70.2861ZM135.612 70.6933C136.475 70.7571 137.284 71.1429 137.878 71.775C138.458 72.4323 138.762 73.2898 138.726 74.1675C138.745 74.6972 138.649 75.2247 138.443 75.7128C138.237 76.2009 137.928 76.6378 137.536 76.9927C136.642 77.7544 135.491 78.1417 134.321 78.0744H127.474V63.5285H133.904C135.051 63.4609 136.183 63.8236 137.081 64.5466C137.468 64.88 137.776 65.2966 137.982 65.7658C138.188 66.235 138.287 66.7447 138.27 67.2573C138.296 68.0872 138.026 68.8991 137.511 69.5479C137.054 70.1425 136.388 70.5386 135.65 70.6551L135.612 70.6933Z" fill="#00377B"/>
<path d="M147.131 64.9155L143.46 73.111H150.801L147.131 64.9155ZM153.029 78.0742L151.257 74.1037H143.004L141.207 78.0742H140.042L146.637 63.5283H147.612L154.194 78.0742H153.029Z" fill="#00377B"/>
<path d="M166.636 78.0742H156.801V63.5283H157.902V77.0816H166.636V78.0742Z" fill="#00377B"/>
<path d="M178.015 76.2928C179.011 75.6511 179.772 74.6991 180.179 73.5821L181.243 73.8494C180.779 75.186 179.889 76.3313 178.711 77.1072C177.458 77.9524 175.98 78.3961 174.471 78.3798C173.463 78.4215 172.458 78.258 171.515 77.8992C170.572 77.5403 169.711 76.9935 168.984 76.2916C168.256 75.5897 167.677 74.7471 167.282 73.8146C166.886 72.8821 166.683 71.8788 166.683 70.8651C166.683 69.8514 166.886 68.8481 167.282 67.9156C167.677 66.9831 168.256 66.1405 168.984 65.4386C169.711 64.7367 170.572 64.1899 171.515 63.831C172.458 63.4722 173.463 63.3087 174.471 63.3504C175.971 63.3193 177.446 63.7355 178.711 64.5466C179.882 65.3135 180.771 66.4442 181.243 67.7663L180.205 68.0845C179.805 66.9627 179.043 66.0082 178.04 65.3738C176.973 64.6856 175.725 64.3353 174.458 64.3684C173.617 64.3448 172.781 64.4939 171.999 64.8069C171.218 65.1198 170.508 65.5899 169.914 66.1883C168.728 67.4281 168.066 69.0814 168.066 70.8015C168.066 72.5215 168.728 74.1748 169.914 75.4147C170.5 76.0254 171.204 76.508 171.984 76.8321C172.764 77.1562 173.602 77.3148 174.446 77.2981C175.704 77.3261 176.943 76.9761 178.002 76.2928" fill="#00377B"/>
<path d="M187.495 60.4361C187.318 60.6593 187.228 60.9399 187.242 61.2251H186.445C186.411 60.7048 186.584 60.1923 186.926 59.7998C187.08 59.6414 187.266 59.5167 187.471 59.4335C187.675 59.3503 187.895 59.3104 188.116 59.3162C188.633 59.3498 189.126 59.5507 189.521 59.8889C189.876 60.202 190.317 60.4014 190.786 60.4616C190.909 60.4667 191.03 60.4416 191.141 60.3883C191.251 60.335 191.347 60.2553 191.419 60.1562C191.588 59.9153 191.669 59.6229 191.647 59.329H192.47C192.503 59.8548 192.335 60.3735 192.001 60.7797C191.852 60.9411 191.669 61.0679 191.466 61.1513C191.262 61.2348 191.044 61.273 190.824 61.2633C190.304 61.2333 189.808 61.0372 189.407 60.7034C189.053 60.3879 188.611 60.1921 188.141 60.1434C188.012 60.1349 187.883 60.157 187.764 60.2078C187.646 60.2586 187.54 60.3369 187.457 60.4361H187.495ZM189.407 64.9157L185.736 73.1113H193.09L189.407 64.9157ZM195.305 78.0744L193.533 74.1039H185.28L183.496 78.0744H182.331L188.9 63.5286H189.875L196.495 78.0744H195.305Z" fill="#00377B"/>
<path d="M209.152 75.4274C210.321 74.1766 210.972 72.5245 210.972 70.8078C210.972 69.0912 210.321 67.4391 209.152 66.1883C208.564 65.5919 207.864 65.1185 207.092 64.7955C206.321 64.4724 205.494 64.3061 204.658 64.3061C203.823 64.3061 202.996 64.4724 202.225 64.7955C201.453 65.1185 200.753 65.5919 200.165 66.1883C198.987 67.4347 198.33 69.0885 198.33 70.8078C198.33 72.5272 198.987 74.1809 200.165 75.4274C200.753 76.0238 201.453 76.4972 202.225 76.8202C202.996 77.1432 203.823 77.3096 204.658 77.3096C205.494 77.3096 206.321 77.1432 207.092 76.8202C207.864 76.4972 208.564 76.0238 209.152 75.4274V75.4274ZM209.911 65.4756C211.295 66.9018 212.07 68.8154 212.07 70.8078C212.07 72.8003 211.295 74.7139 209.911 76.1401C208.513 77.535 206.622 78.3177 204.652 78.3177C202.682 78.3177 200.792 77.535 199.393 76.1401C198.009 74.7139 197.234 72.8003 197.234 70.8078C197.234 68.8154 198.009 66.9018 199.393 65.4756C200.786 64.0753 202.676 63.2886 204.646 63.2886C206.616 63.2886 208.505 64.0753 209.899 65.4756" fill="#00377B"/>
<path d="M134.233 56.9872C135.008 57.0313 135.77 56.7712 136.359 56.2618C136.624 56.0228 136.833 55.7276 136.971 55.3975C137.109 55.0674 137.172 54.7106 137.157 54.3529C137.167 54.004 137.099 53.6573 136.959 53.338C136.819 53.0188 136.61 52.735 136.346 52.5076C135.755 52.033 135.014 51.789 134.258 51.8204H129.195V56.9872H134.233ZM129.17 50.4205H134.093C134.451 50.438 134.809 50.384 135.145 50.2617C135.482 50.1394 135.791 49.9511 136.055 49.7079C136.299 49.461 136.49 49.1666 136.617 48.8426C136.743 48.5187 136.802 48.1721 136.789 47.8244C136.803 47.4893 136.742 47.1555 136.61 46.8472C136.479 46.539 136.281 46.2642 136.03 46.0428C135.444 45.5801 134.711 45.3451 133.967 45.381H129.157L129.17 50.4205ZM135.979 51.0568C136.78 51.1394 137.521 51.5208 138.055 52.1258C138.625 52.7832 138.924 53.6343 138.891 54.5056C138.913 55.042 138.819 55.5769 138.616 56.0734C138.413 56.5699 138.105 57.0162 137.713 57.3817C136.783 58.1499 135.599 58.5363 134.397 58.4634H127.461V43.9048H134.119C135.263 43.8407 136.388 44.2135 137.27 44.9483C137.651 45.302 137.951 45.7341 138.15 46.2152C138.348 46.6962 138.441 47.2148 138.422 47.7353C138.442 48.5408 138.182 49.3281 137.688 49.9624C137.276 50.5188 136.662 50.8893 135.979 50.9932V51.0568Z" fill="#00377B"/>
<path d="M152.105 55.4093C152.649 54.8529 153.076 54.1921 153.361 53.4663C153.646 52.7404 153.782 51.9643 153.763 51.1843C153.779 50.4047 153.641 49.6296 153.356 48.9043C153.071 48.1789 152.646 47.5177 152.105 46.9592C151.571 46.4117 150.934 45.9767 150.231 45.6797C149.528 45.3828 148.773 45.2298 148.01 45.2298C147.247 45.2298 146.492 45.3828 145.789 45.6797C145.086 45.9767 144.449 46.4117 143.915 46.9592C143.37 47.5154 142.941 48.1759 142.654 48.9016C142.367 49.6273 142.228 50.4035 142.244 51.1843C142.224 51.9655 142.362 52.7428 142.649 53.469C142.936 54.1952 143.367 54.8553 143.915 55.4093C144.453 55.9507 145.091 56.3802 145.793 56.6733C146.496 56.9664 147.249 57.1172 148.01 57.1172C148.771 57.1172 149.524 56.9664 150.227 56.6733C150.929 56.3802 151.567 55.9507 152.105 55.4093V55.4093ZM153.37 45.8139C154.777 47.2434 155.566 49.1733 155.566 51.1843C155.566 53.1953 154.777 55.1251 153.37 56.5547C151.951 57.9537 150.042 58.7374 148.054 58.7374C146.066 58.7374 144.158 57.9537 142.738 56.5547C141.677 55.4981 140.953 54.1478 140.659 52.676C140.364 51.2042 140.512 49.6774 141.083 48.2904C141.655 46.9034 142.625 45.719 143.868 44.8881C145.112 44.0572 146.574 43.6175 148.067 43.625C149.053 43.6069 150.032 43.7917 150.944 44.1681C151.856 44.5446 152.682 45.1046 153.37 45.8139" fill="#00377B"/>
<path d="M167.927 58.4634H157.927V43.9048H159.636V56.8981H167.927V58.4634Z" fill="#00377B"/>
<path d="M178.774 44.7322C179.731 45.4331 180.383 46.4762 180.597 47.6465L178.901 48.041C178.763 47.2 178.31 46.4441 177.635 45.9284C176.902 45.3902 176.01 45.1166 175.103 45.1522C174.251 45.1114 173.41 45.3676 172.724 45.8775C172.433 46.098 172.199 46.385 172.04 46.7148C171.882 47.0446 171.804 47.4076 171.813 47.7737C171.797 48.0415 171.839 48.3094 171.935 48.5596C172.031 48.8098 172.179 49.0365 172.369 49.2245C172.833 49.6119 173.393 49.863 173.99 49.9499L177.154 50.6625C179.584 51.1801 180.799 52.4527 180.799 54.4804C180.821 55.0858 180.7 55.6878 180.444 56.2366C180.189 56.7854 179.807 57.2652 179.331 57.6364C178.199 58.4646 176.818 58.8778 175.42 58.8072C174.003 58.8546 172.607 58.4492 171.433 57.6491C170.909 57.2865 170.47 56.8146 170.144 56.2655C169.819 55.7164 169.615 55.1032 169.547 54.4676L171.344 54.0986C171.4 54.5656 171.551 55.0161 171.788 55.4213C172.026 55.8266 172.344 56.1779 172.724 56.4529C173.558 57.0359 174.557 57.3307 175.572 57.2928C176.475 57.3337 177.367 57.0694 178.103 56.542C178.404 56.3116 178.646 56.0126 178.809 55.6695C178.972 55.3265 179.051 54.9494 179.04 54.5694C179.062 54.2965 179.024 54.022 178.93 53.765C178.836 53.508 178.688 53.2744 178.496 53.0805C177.968 52.6687 177.345 52.3974 176.686 52.2915L173.433 51.5788C171.104 51.057 169.952 49.8099 169.952 47.8628C169.92 47.2609 170.036 46.6603 170.29 46.1142C170.544 45.5681 170.928 45.0934 171.408 44.7322C172.472 43.9155 173.791 43.5051 175.129 43.5741C176.438 43.5454 177.719 43.9526 178.774 44.7322Z" fill="#00377B"/>
<path d="M189.672 46.0046L186.508 53.1948H192.837L189.672 46.0046ZM195.09 58.4252L193.469 54.7347H185.875L184.242 58.4252H182.407L188.9 43.9048H190.482L196.963 58.4634L195.09 58.4252Z" fill="#00377B"/>
<path d="M134.245 36.842C134.901 36.8804 135.545 36.6614 136.043 36.2312C136.257 36.0254 136.426 35.7759 136.537 35.4994C136.649 35.2229 136.7 34.9258 136.688 34.6277C136.701 34.3322 136.648 34.0376 136.534 33.7648C136.421 33.492 136.248 33.2478 136.03 33.0497C135.55 32.6425 134.936 32.4293 134.309 32.4516H129.752V36.842H134.245ZM129.752 30.5808H134.081C134.692 30.6026 135.287 30.3834 135.739 29.97C135.948 29.7583 136.113 29.5056 136.222 29.2277C136.33 28.9497 136.382 28.6523 136.372 28.3538C136.373 28.0828 136.317 27.8145 136.208 27.5667C136.099 27.3188 135.939 27.097 135.739 26.9157C135.279 26.5173 134.687 26.3082 134.081 26.3303H129.739L129.752 30.5808ZM136.346 31.4335C137.097 31.5207 137.786 31.8942 138.27 32.477C138.82 33.1387 139.104 33.9827 139.068 34.8441C139.089 35.386 138.995 35.9262 138.792 36.4287C138.589 36.9312 138.281 37.3845 137.891 37.7583C136.933 38.5402 135.716 38.9269 134.486 38.84H127.448V24.2814H134.334C135.476 24.2242 136.595 24.6116 137.46 25.3631C137.851 25.7236 138.159 26.1655 138.362 26.6578C138.565 27.1501 138.659 27.6811 138.637 28.2138C138.662 28.9885 138.41 29.7466 137.929 30.3518C137.537 30.863 136.975 31.2154 136.346 31.3444V31.4335Z" fill="#00B9F2"/>
<path d="M148.7 30.9371C149.395 30.9715 150.079 30.7498 150.624 30.3135C150.855 30.1081 151.041 29.8555 151.168 29.5724C151.295 29.2894 151.361 28.9824 151.361 28.6718C151.361 28.3613 151.295 28.0543 151.168 27.7712C151.041 27.4882 150.855 27.2356 150.624 27.0302C150.081 26.5893 149.397 26.363 148.7 26.3939H144.206V30.9371H148.7ZM151.459 38.8399L146.308 33.0369H144.206V38.8399H141.89V24.2813H148.7C150.014 24.2406 151.296 24.6944 152.295 25.5539C152.745 25.9482 153.102 26.4382 153.341 26.9884C153.579 27.5387 153.693 28.1355 153.674 28.7354C153.692 29.3059 153.589 29.8736 153.371 30.4005C153.152 30.9273 152.824 31.401 152.408 31.7897C151.492 32.6024 150.314 33.0544 149.092 33.0623L154.32 38.8781L151.459 38.8399Z" fill="#00B9F2"/>
<path d="M162.661 27.1319L160.041 33.2786H165.269L162.661 27.1319ZM167.598 38.8399L166.18 35.4547H159.13L157.712 38.8399H155.181L161.509 24.2812H163.674L170.003 38.8399H167.598Z" fill="#00B9F2"/>
<path d="M180.597 25.0957C181.586 25.8107 182.261 26.8822 182.483 28.0864L180.179 28.57C180.07 27.8287 179.675 27.1609 179.078 26.7119C178.445 26.2307 177.669 25.9794 176.876 25.9993C176.137 25.9592 175.407 26.1798 174.812 26.6229C174.566 26.8064 174.368 27.0467 174.233 27.3235C174.099 27.6004 174.033 27.9057 174.04 28.2136C174.03 28.4328 174.063 28.6519 174.139 28.8576C174.216 29.0632 174.333 29.2512 174.483 29.4099C174.88 29.7479 175.362 29.9682 175.876 30.0462L179.015 30.7207C181.479 31.2721 182.715 32.5956 182.723 34.6912C182.745 35.3146 182.619 35.9342 182.355 36.4987C182.091 37.0631 181.696 37.556 181.204 37.9363C180.047 38.811 178.626 39.2601 177.179 39.2089C175.74 39.2573 174.321 38.8573 173.116 38.0636C172.578 37.7128 172.126 37.2445 171.793 36.6937C171.46 36.1429 171.255 35.5237 171.192 34.8821L173.711 34.2967C173.776 34.7092 173.921 35.1049 174.138 35.4609C174.355 35.8169 174.64 36.1262 174.977 36.371C175.724 36.8722 176.611 37.1218 177.508 37.0837C178.3 37.1331 179.084 36.9134 179.736 36.4601C179.996 36.2751 180.205 36.0283 180.347 35.7418C180.488 35.4554 180.557 35.1381 180.546 34.8184C180.563 34.5861 180.531 34.3528 180.453 34.1336C180.374 33.9144 180.251 33.7142 180.091 33.5458C179.632 33.1921 179.092 32.9602 178.521 32.8714L175.369 32.2223C172.926 31.6624 171.711 30.3389 171.711 28.2645C171.696 27.6686 171.82 27.0774 172.072 26.5382C172.325 25.999 172.7 25.5268 173.167 25.1594C174.278 24.3265 175.643 23.9082 177.027 23.9758C178.342 23.9325 179.635 24.3212 180.711 25.083" fill="#00B9F2"/>
<path d="M187.976 24.2812H185.66V38.8399H187.976V24.2812Z" fill="#00B9F2"/>
<path d="M201.71 38.8399H191.495V24.2812H193.799V36.7273H201.71V38.8399Z" fill="#00B9F2"/>
</g>
<defs>
<clipPath id="clip0">
<rect width="212" height="95" fill="white"/>
</clipPath>
</defs>
</svg>
