<svg width="125" height="90" viewBox="0 0 125 90" fill="none" xmlns="http://www.w3.org/2000/svg">
<path fill-rule="evenodd" clip-rule="evenodd" d="M50.5182 82.2476H58.9517V82.4143C58.9517 83.4424 58.1167 84.276 57.0869 84.276H50.546V87.916H58.1167C59.1465 87.916 59.9815 88.7774 59.9815 89.8055V89.9722H48.3472V76.6348H59.898V76.8015C59.898 77.8296 59.063 78.691 58.0332 78.691H50.5182V82.2476Z" fill="#54565A"/>
<path d="M41.3887 79.8859C41.3887 79.2468 40.8877 78.7466 40.2476 78.7466H32.5099V89.9445H30.3389V76.6904H39.5239C42.9474 76.6904 43.5598 78.052 43.5598 80.5527V81.8587C43.5598 83.2202 43.0588 83.9149 42.2794 84.2761C43.1701 84.7763 43.4206 85.6376 43.4206 86.5824V89.9445H42.3351C41.7784 89.9445 41.3331 89.4999 41.3331 88.9442V86.9992C41.3331 85.3042 40.7207 85.1653 39.4682 85.1653H36.0169C34.9871 85.1653 34.1242 84.3317 34.1242 83.2758V83.1091H40.2197C40.8599 83.1091 41.3609 82.6089 41.3609 81.9698V79.8859H41.3887Z" fill="#54565A"/>
<path d="M95.0236 89.9723H84.3913C82.7491 89.9723 81.4131 88.6385 81.4131 86.9991V79.6357C81.4131 77.9963 82.7491 76.6626 84.3913 76.6626H95.0236V76.8293C95.0236 77.8852 94.1608 78.7188 93.131 78.7188H84.5304C84.0016 78.7744 83.5563 79.1912 83.5006 79.7191V86.9158C83.5563 87.4159 83.9738 87.8327 84.4748 87.8883H93.1588C94.2165 87.8883 95.0515 88.7219 95.0515 89.7778V89.9723H95.0236Z" fill="#54565A"/>
<path d="M109.33 78.7466H101.704C100.98 78.7466 100.423 79.2746 100.423 79.8859V86.8047C100.423 87.416 100.98 87.9439 101.704 87.9439H109.33C110.026 87.9439 110.555 87.4715 110.583 86.888V79.8025C110.527 79.219 109.998 78.7466 109.33 78.7466ZM109.664 76.6904C111.306 76.6904 112.642 78.0242 112.642 79.6636V87.027C112.642 88.6663 111.306 90.0001 109.664 90.0001H101.342C99.6998 90.0001 98.3638 88.6663 98.3638 87.027V79.6636C98.3638 78.0242 99.6998 76.6904 101.342 76.6904H109.664Z" fill="#54565A"/>
<path d="M77.4607 86.9713C77.4607 88.6107 76.1247 89.9445 74.4825 89.9445H63.8501V89.7778C63.8501 88.7219 64.7129 87.8883 65.7428 87.8883H74.232C74.8722 87.8883 75.3732 87.3881 75.3732 86.7491V85.4709C75.3732 84.8874 74.9278 84.415 74.3712 84.3316L66.8283 84.3038C65.1861 84.3038 63.8501 82.9701 63.8501 81.3307V79.6357C63.8501 77.9963 65.1861 76.6626 66.8283 76.6626H77.4607V76.8293C77.4607 77.8574 76.6257 78.7188 75.568 78.7188H67.0788C66.4386 78.7188 65.9376 79.2189 65.9376 79.858V81.1362C65.9376 81.7197 66.3551 82.1921 66.9118 82.2477L74.4825 82.2754C76.1247 82.2754 77.4607 83.6092 77.4607 85.2486V86.9713V86.9713Z" fill="#54565A"/>
<path fill-rule="evenodd" clip-rule="evenodd" d="M23.7701 79.8308C23.7701 79.1917 23.2691 78.6915 22.6289 78.6915L14.5016 78.7193V88.0555H22.6289C23.2413 88.0555 23.7701 87.5276 23.7701 86.9163V85.4436C23.7701 84.8601 23.3248 84.3877 22.7681 84.3322H18.0364C17.0066 84.3322 16.1437 83.4708 16.1437 82.4427V82.2482H22.6289C23.2413 82.2482 23.7701 81.7202 23.7701 81.0812V79.8308ZM25.8576 79.6918V81.3868C25.8576 82.137 25.5793 82.8039 25.134 83.3319C25.5793 83.8598 25.8576 84.5267 25.8576 85.2769V86.9719C25.8576 88.6113 24.5216 89.945 22.8794 89.945H12.3306V76.6909H22.8516C24.5216 76.7187 25.8576 78.0524 25.8576 79.6918Z" fill="#54565A"/>
<path fill-rule="evenodd" clip-rule="evenodd" d="M93.9657 68.938C93.9657 67.8265 94.8564 66.9373 95.9697 66.9373C97.083 66.9373 97.9737 67.8265 97.9737 68.938C97.9737 70.0494 97.083 70.9386 95.9697 70.9386C94.8564 70.9386 93.9657 70.0494 93.9657 68.938ZM93.9657 63.3529C93.9657 62.2414 94.8564 61.3523 95.9697 61.3523C97.083 61.3523 97.9737 62.2414 97.9737 63.3529C97.9737 64.4643 97.083 65.3535 95.9697 65.3535C94.8564 65.3535 93.9657 64.4366 93.9657 63.3529ZM99.0314 24.452C99.0314 23.5073 99.8107 22.7292 100.757 22.7292C101.703 22.7292 102.483 23.5073 102.483 24.452C102.483 25.3967 101.703 26.1747 100.757 26.1747C99.8107 26.147 99.0314 25.3967 99.0314 24.452ZM98.9201 16.394C98.9201 15.5326 99.6159 14.8379 100.479 14.8379C101.342 14.8379 102.037 15.5326 102.037 16.394C102.037 17.2553 101.342 17.95 100.479 17.95C99.6159 17.9778 98.9201 17.2831 98.9201 16.394ZM94.7729 28.092C94.7729 27.1473 95.5522 26.3693 96.4986 26.3693C97.4449 26.3693 98.2242 27.1473 98.2242 28.092C98.2242 29.0367 97.4449 29.8148 96.4986 29.8148C95.5244 29.8148 94.7729 29.0645 94.7729 28.092ZM94.8007 19.7839C94.8007 18.8947 95.5244 18.1723 96.415 18.1723C97.3057 18.1723 98.0294 18.8947 98.0294 19.7839C98.0294 20.673 97.3057 21.3955 96.415 21.3955C95.5244 21.3955 94.8007 20.673 94.8007 19.7839ZM99.0314 0.861377C99.0314 0.389009 99.4211 0 99.8942 0C100.367 0 100.757 0.389009 100.757 0.861377C100.757 1.33375 100.367 1.72275 99.8942 1.72275C99.4211 1.69497 99.0314 1.33375 99.0314 0.861377ZM95.3852 3.00093C95.3852 2.38963 95.8862 1.88947 96.4986 1.88947C97.1109 1.88947 97.6119 2.38963 97.6119 3.00093C97.6119 3.61223 97.1109 4.11238 96.4986 4.11238C95.8862 4.11238 95.3852 3.61223 95.3852 3.00093ZM106.741 4.33467C106.741 3.8623 107.131 3.47329 107.604 3.47329C108.077 3.47329 108.467 3.8623 108.467 4.33467C108.467 4.80704 108.077 5.19605 107.604 5.19605C107.103 5.19605 106.741 4.80704 106.741 4.33467ZM102.789 6.19636C102.789 5.58506 103.29 5.0849 103.902 5.0849C104.515 5.0849 105.016 5.58506 105.016 6.19636C105.016 6.80766 104.515 7.30781 103.902 7.30781C103.29 7.30781 102.789 6.80766 102.789 6.19636ZM98.5861 8.86385C98.5861 8.1414 99.1706 7.55789 99.8942 7.55789C100.618 7.55789 101.202 8.1414 101.202 8.86385C101.202 9.58629 100.618 10.1698 99.8942 10.1698C99.1706 10.1698 98.5861 9.58629 98.5861 8.86385ZM94.745 12.4483C94.745 11.6425 95.413 10.9756 96.2202 10.9756C97.0274 10.9756 97.6954 11.6425 97.6954 12.4483C97.6954 13.2541 97.0274 13.921 96.2202 13.921C95.413 13.921 94.745 13.2541 94.745 12.4483ZM112.781 9.69744C112.781 9.22507 113.171 8.83606 113.644 8.83606C114.117 8.83606 114.507 9.22507 114.507 9.69744C114.507 10.1698 114.117 10.5588 113.644 10.5588C113.171 10.531 112.781 10.142 112.781 9.69744ZM108.55 11.059C108.55 10.4477 109.051 9.94752 109.664 9.94752C110.276 9.94752 110.777 10.4477 110.777 11.059C110.777 11.6703 110.276 12.1704 109.664 12.1704C109.051 12.1982 108.55 11.6981 108.55 11.059ZM104.236 13.004C104.236 12.2816 104.821 11.6981 105.544 11.6981C106.268 11.6981 106.853 12.2816 106.853 13.004C106.853 13.7265 106.268 14.31 105.544 14.31C104.821 14.31 104.236 13.7265 104.236 13.004ZM116.984 15.9772C116.984 15.5048 117.374 15.1158 117.847 15.1158C118.32 15.1158 118.71 15.5048 118.71 15.9772C118.71 16.4495 118.32 16.8385 117.847 16.8385C117.374 16.8107 116.984 16.4217 116.984 15.9772ZM112.698 17.2275C112.698 16.6162 113.199 16.1161 113.811 16.1161C114.423 16.1161 114.924 16.6162 114.924 17.2275C114.924 17.8388 114.423 18.339 113.811 18.339C113.199 18.339 112.698 17.8388 112.698 17.2275ZM108.272 18.9781C108.272 18.2556 108.857 17.6721 109.58 17.6721C110.304 17.6721 110.888 18.2556 110.888 18.9781C110.888 19.7005 110.304 20.284 109.58 20.284C108.857 20.284 108.272 19.7005 108.272 18.9781ZM103.624 21.3121C103.624 20.5063 104.292 19.8395 105.099 19.8395C105.906 19.8395 106.574 20.5063 106.574 21.3121C106.574 22.1179 105.906 22.7848 105.099 22.7848C104.292 22.7848 103.624 22.1457 103.624 21.3121ZM123.274 24.2297C123.274 23.7573 123.664 23.3683 124.137 23.3683C124.61 23.3683 125 23.7573 125 24.2297C125 24.7021 124.61 25.0911 124.137 25.0911C123.664 25.0633 123.274 24.6743 123.274 24.2297ZM119.099 24.3408C119.099 23.7295 119.6 23.2294 120.213 23.2294C120.825 23.2294 121.326 23.7295 121.326 24.3408C121.326 24.9521 120.825 25.4523 120.213 25.4523C119.6 25.4523 119.099 24.9521 119.099 24.3408ZM114.368 24.8132C114.368 24.0908 114.952 23.5073 115.676 23.5073C116.399 23.5073 116.984 24.0908 116.984 24.8132C116.984 25.5357 116.399 26.1192 115.676 26.1192C114.952 26.1192 114.368 25.5357 114.368 24.8132ZM109.441 26.008C109.441 25.2022 110.109 24.5354 110.916 24.5354C111.723 24.5354 112.391 25.2022 112.391 26.008C112.391 26.8138 111.723 27.4807 110.916 27.4807C110.081 27.4807 109.441 26.8138 109.441 26.008ZM104.069 28.2309C104.069 27.3696 104.765 26.6749 105.628 26.6749C106.491 26.6749 107.187 27.3696 107.187 28.2309C107.187 29.0923 106.491 29.787 105.628 29.787C104.765 29.8148 104.069 29.0923 104.069 28.2309ZM99.8107 31.4819C99.8107 30.5928 100.534 29.8703 101.425 29.8703C102.316 29.8703 103.039 30.5928 103.039 31.4819C103.039 32.3711 102.316 33.0935 101.425 33.0935C100.534 33.0935 99.8107 32.3711 99.8107 31.4819ZM96.8882 35.4832C96.8882 34.5384 97.6676 33.7604 98.6139 33.7604C99.5602 33.7604 100.34 34.5384 100.34 35.4832C100.34 36.4279 99.5602 37.2059 98.6139 37.2059C97.6397 37.2059 96.8882 36.4279 96.8882 35.4832ZM94.4389 40.8737C94.4389 39.8734 95.246 39.0398 96.2759 39.0398C97.2779 39.0398 98.1129 39.8456 98.1129 40.8737C98.1129 41.874 97.3057 42.7076 96.2759 42.7076C95.246 42.7076 94.4389 41.874 94.4389 40.8737ZM94.077 46.6255C94.077 45.5974 94.912 44.736 95.9697 44.736C96.9995 44.736 97.8624 45.5696 97.8624 46.6255C97.8624 47.6536 97.0274 48.515 95.9697 48.515C94.912 48.4872 94.077 47.6536 94.077 46.6255ZM94.0214 52.0716C94.0214 50.988 94.8842 50.1266 95.9697 50.1266C97.0552 50.1266 97.9181 50.988 97.9181 52.0716C97.9181 53.1553 97.0552 54.0167 95.9697 54.0167C94.8842 54.0167 94.0214 53.1553 94.0214 52.0716ZM93.9657 57.74C93.9657 56.6286 94.8564 55.7394 95.9697 55.7394C97.083 55.7394 97.9737 56.6286 97.9737 57.74C97.9737 58.8515 97.083 59.7407 95.9697 59.7407C94.8564 59.7407 93.9657 58.8515 93.9657 57.74ZM87.1187 68.938C87.1187 67.8265 88.0094 66.9373 89.1227 66.9373C90.236 66.9373 91.1267 67.8265 91.1267 68.938C91.1267 70.0494 90.236 70.9386 89.1227 70.9386C88.0094 70.9386 87.1187 70.0494 87.1187 68.938ZM87.1187 63.3529C87.1187 62.2414 88.0094 61.3523 89.1227 61.3523C90.236 61.3523 91.1267 62.2414 91.1267 63.3529C91.1267 64.4643 90.236 65.3535 89.1227 65.3535C88.0094 65.3535 87.1187 64.4366 87.1187 63.3529ZM82.6097 24.452C82.6097 23.5073 83.389 22.7292 84.3353 22.7292C85.2817 22.7292 86.061 23.5073 86.061 24.452C86.061 25.3967 85.2817 26.1747 84.3353 26.1747C83.389 26.147 82.6097 25.3967 82.6097 24.452ZM91.2659 6.25193C91.2659 5.52948 91.8504 4.94597 92.574 4.94597C93.2977 4.94597 93.8822 5.52948 93.8822 6.25193C93.8822 6.97438 93.2977 7.55789 92.574 7.55789C91.8504 7.55789 91.2659 6.97438 91.2659 6.25193ZM83.0272 16.394C83.0272 15.5326 83.723 14.8379 84.5858 14.8379C85.4487 14.8379 86.1445 15.5326 86.1445 16.394C86.1445 17.2553 85.4487 17.95 84.5858 17.95C83.723 17.9778 83.0272 17.2831 83.0272 16.394ZM86.8682 28.092C86.8682 27.1473 87.6475 26.3693 88.5938 26.3693C89.5402 26.3693 90.3195 27.1473 90.3195 28.092C90.3195 29.0367 89.5402 29.8148 88.5938 29.8148C87.6475 29.8148 86.8682 29.0645 86.8682 28.092ZM87.0352 19.7839C87.0352 18.8947 87.7588 18.1723 88.6495 18.1723C89.5402 18.1723 90.2639 18.8947 90.2639 19.7839C90.2639 20.673 89.5402 21.3955 88.6495 21.3955C87.7588 21.3955 87.0352 20.673 87.0352 19.7839ZM90.9319 24.1186C90.9319 23.2294 91.6555 22.5069 92.5462 22.5069C93.4369 22.5069 94.1605 23.2294 94.1605 24.1186C94.1605 25.0077 93.4369 25.7302 92.5462 25.7302C91.6555 25.7302 90.9319 25.0077 90.9319 24.1186ZM84.3353 0.861377C84.3353 0.389009 84.725 0 85.1982 0C85.6713 0 86.061 0.389009 86.061 0.861377C86.061 1.33375 85.6713 1.72275 85.1982 1.72275C84.725 1.69497 84.3353 1.33375 84.3353 0.861377ZM87.4527 3.00093C87.4527 2.38963 87.9537 1.88947 88.566 1.88947C89.1784 1.88947 89.6794 2.38963 89.6794 3.00093C89.6794 3.61223 89.1784 4.11238 88.566 4.11238C87.9537 4.11238 87.4527 3.61223 87.4527 3.00093ZM76.6533 4.33467C76.6533 3.8623 77.043 3.47329 77.5161 3.47329C77.9893 3.47329 78.379 3.8623 78.379 4.33467C78.379 4.80704 77.9893 5.19605 77.5161 5.19605C77.0151 5.19605 76.6533 4.80704 76.6533 4.33467ZM80.049 6.19636C80.049 5.58506 80.55 5.0849 81.1623 5.0849C81.7747 5.0849 82.2757 5.58506 82.2757 6.19636C82.2757 6.80766 81.7747 7.30781 81.1623 7.30781C80.55 7.30781 80.049 6.80766 80.049 6.19636ZM83.89 8.86385C83.89 8.1414 84.4745 7.55789 85.1982 7.55789C85.9218 7.55789 86.5063 8.1414 86.5063 8.86385C86.5063 9.58629 85.9218 10.1698 85.1982 10.1698C84.4745 10.1698 83.89 9.58629 83.89 8.86385ZM87.3692 12.4483C87.3692 11.6425 88.0372 10.9756 88.8444 10.9756C89.6515 10.9756 90.3195 11.6425 90.3195 12.4483C90.3195 13.2541 89.6515 13.921 88.8444 13.921C88.0372 13.921 87.3692 13.2541 87.3692 12.4483ZM90.9875 15.8104C90.9875 14.9491 91.6834 14.2544 92.5462 14.2544C93.409 14.2544 94.1049 14.9491 94.1049 15.8104C94.1049 16.6718 93.409 17.3665 92.5462 17.3665C91.6834 17.3943 90.9875 16.6718 90.9875 15.8104ZM70.5856 9.69744C70.5856 9.22507 70.9753 8.83606 71.4485 8.83606C71.9216 8.83606 72.3113 9.22507 72.3113 9.69744C72.3113 10.1698 71.9216 10.5588 71.4485 10.5588C70.9753 10.531 70.5856 10.142 70.5856 9.69744ZM74.2875 11.059C74.2875 10.4477 74.7885 9.94752 75.4008 9.94752C76.0131 9.94752 76.5141 10.4477 76.5141 11.059C76.5141 11.6703 76.0131 12.1704 75.4008 12.1704C74.7885 12.1982 74.2875 11.6981 74.2875 11.059ZM78.2398 13.004C78.2398 12.2816 78.8243 11.6981 79.548 11.6981C80.2716 11.6981 80.8562 12.2816 80.8562 13.004C80.8562 13.7265 80.2716 14.31 79.548 14.31C78.8243 14.31 78.2398 13.7265 78.2398 13.004ZM66.3828 15.9772C66.3828 15.5048 66.7724 15.1158 67.2456 15.1158C67.7188 15.1158 68.1084 15.5048 68.1084 15.9772C68.1084 16.4495 67.7188 16.8385 67.2456 16.8385C66.7724 16.8107 66.3828 16.4217 66.3828 15.9772ZM70.1403 17.2275C70.1403 16.6162 70.6413 16.1161 71.2536 16.1161C71.866 16.1161 72.367 16.6162 72.367 17.2275C72.367 17.8388 71.866 18.339 71.2536 18.339C70.6413 18.339 70.1403 17.8388 70.1403 17.2275ZM74.204 18.9781C74.204 18.2556 74.7885 17.6721 75.5121 17.6721C76.2358 17.6721 76.8203 18.2556 76.8203 18.9781C76.8203 19.7005 76.2358 20.284 75.5121 20.284C74.7885 20.284 74.204 19.7005 74.204 18.9781ZM78.4903 21.3121C78.4903 20.5063 79.1583 19.8395 79.9655 19.8395C80.7727 19.8395 81.4407 20.5063 81.4407 21.3121C81.4407 22.1179 80.7727 22.7848 79.9655 22.7848C79.1583 22.7848 78.4903 22.1457 78.4903 21.3121ZM90.8484 32.5656C90.8484 31.6209 91.6277 30.8429 92.574 30.8429C93.5204 30.8429 94.2997 31.6209 94.2997 32.5656C94.2997 33.5103 93.5204 34.2884 92.574 34.2884C91.5999 34.2884 90.8484 33.5381 90.8484 32.5656ZM61.3727 24.3408C61.3727 23.7295 61.8737 23.2294 62.4861 23.2294C63.0984 23.2294 63.5994 23.7295 63.5994 24.3408C63.5994 24.9521 63.0984 25.4523 62.4861 25.4523C61.8737 25.4523 61.3727 24.9521 61.3727 24.3408ZM67.1064 24.8132C67.1064 24.0908 67.6909 23.5073 68.4146 23.5073C69.1383 23.5073 69.7228 24.0908 69.7228 24.8132C69.7228 25.5357 69.1383 26.1192 68.4146 26.1192C67.6909 26.1192 67.1064 25.5357 67.1064 24.8132ZM72.5061 26.008C72.5061 25.2022 73.1741 24.5354 73.9813 24.5354C74.7885 24.5354 75.4565 25.2022 75.4565 26.008C75.4565 26.8138 74.7885 27.4807 73.9813 27.4807C73.1741 27.4807 72.5061 26.8138 72.5061 26.008ZM77.878 28.2309C77.878 27.3696 78.5738 26.6749 79.4366 26.6749C80.2995 26.6749 80.9953 27.3696 80.9953 28.2309C80.9953 29.0923 80.2995 29.787 79.4366 29.787C78.5738 29.8148 77.878 29.0923 77.878 28.2309ZM82.0252 31.4819C82.0252 30.5928 82.7488 29.8703 83.6395 29.8703C84.5302 29.8703 85.2538 30.5928 85.2538 31.4819C85.2538 32.3711 84.5302 33.0935 83.6395 33.0935C82.7488 33.0935 82.0252 32.3711 82.0252 31.4819ZM84.7528 35.4832C84.7528 34.5384 85.5322 33.7604 86.4785 33.7604C87.4249 33.7604 88.2042 34.5384 88.2042 35.4832C88.2042 36.4279 87.4249 37.2059 86.4785 37.2059C85.5322 37.2059 84.7528 36.4279 84.7528 35.4832ZM87.0073 40.8737C87.0073 39.8734 87.8145 39.0398 88.8444 39.0398C89.8464 39.0398 90.6814 39.8456 90.6814 40.8737C90.6814 41.874 89.8742 42.7076 88.8444 42.7076C87.8145 42.7076 87.0073 41.874 87.0073 40.8737ZM87.23 46.6255C87.23 45.5974 88.065 44.736 89.1227 44.736C90.1525 44.736 91.0154 45.5696 91.0154 46.6255C91.0154 47.6536 90.1804 48.515 89.1227 48.515C88.065 48.4872 87.23 47.6536 87.23 46.6255ZM87.1743 52.0716C87.1743 50.988 88.0372 50.1266 89.1227 50.1266C90.2082 50.1266 91.071 50.988 91.071 52.0716C91.071 53.1553 90.2082 54.0167 89.1227 54.0167C88.0372 54.0167 87.1743 53.1553 87.1743 52.0716ZM87.1187 57.74C87.1187 56.6286 88.0094 55.7394 89.1227 55.7394C90.236 55.7394 91.1267 56.6286 91.1267 57.74C91.1267 58.8515 90.236 59.7407 89.1227 59.7407C88.0094 59.7407 87.1187 58.8515 87.1187 57.74ZM33.8733 68.938C33.8733 67.8265 34.764 66.9373 35.8773 66.9373C36.9906 66.9373 37.8813 67.8265 37.8813 68.938C37.8813 70.0494 36.9906 70.9386 35.8773 70.9386C34.764 70.9386 33.8733 70.0494 33.8733 68.938ZM33.8733 63.3529C33.8733 62.2414 34.764 61.3523 35.8773 61.3523C36.9906 61.3523 37.8813 62.2414 37.8813 63.3529C37.8813 64.4643 36.9906 65.3535 35.8773 65.3535C34.764 65.3535 33.8733 64.4366 33.8733 63.3529ZM38.939 24.452C38.939 23.5073 39.7183 22.7292 40.6647 22.7292C41.611 22.7292 42.3903 23.5073 42.3903 24.452C42.3903 25.3967 41.611 26.1747 40.6647 26.1747C39.7183 26.147 38.939 25.3967 38.939 24.452ZM38.8277 16.394C38.8277 15.5326 39.5235 14.8379 40.3863 14.8379C41.2492 14.8379 41.945 15.5326 41.945 16.394C41.945 17.2553 41.2492 17.95 40.3863 17.95C39.5235 17.9778 38.8277 17.2831 38.8277 16.394ZM34.6805 28.092C34.6805 27.1473 35.4598 26.3693 36.4061 26.3693C37.3525 26.3693 38.1318 27.1473 38.1318 28.092C38.1318 29.0367 37.3525 29.8148 36.4061 29.8148C35.432 29.8148 34.6805 29.0645 34.6805 28.092ZM34.7083 19.7839C34.7083 18.8947 35.432 18.1723 36.3226 18.1723C37.2133 18.1723 37.937 18.8947 37.937 19.7839C37.937 20.673 37.2133 21.3955 36.3226 21.3955C35.4598 21.3955 34.7083 20.673 34.7083 19.7839ZM38.939 0.861377C38.939 0.389009 39.3287 0 39.8018 0C40.275 0 40.6647 0.389009 40.6647 0.861377C40.6647 1.33375 40.275 1.72275 39.8018 1.72275C39.3287 1.69497 38.939 1.33375 38.939 0.861377ZM35.2928 3.00093C35.2928 2.38963 35.7938 1.88947 36.4061 1.88947C37.0185 1.88947 37.5195 2.38963 37.5195 3.00093C37.5195 3.61223 37.0185 4.11238 36.4061 4.11238C35.7938 4.11238 35.2928 3.61223 35.2928 3.00093ZM46.6489 4.33467C46.6489 3.8623 47.0385 3.47329 47.5117 3.47329C47.9849 3.47329 48.3745 3.8623 48.3745 4.33467C48.3745 4.80704 47.9849 5.19605 47.5117 5.19605C47.0107 5.19605 46.6489 4.80704 46.6489 4.33467ZM42.6965 6.19636C42.6965 5.58506 43.1975 5.0849 43.8098 5.0849C44.4222 5.0849 44.9232 5.58506 44.9232 6.19636C44.9232 6.80766 44.4222 7.30781 43.8098 7.30781C43.1975 7.30781 42.6965 6.80766 42.6965 6.19636ZM38.4937 8.86385C38.4937 8.1414 39.0782 7.55789 39.8018 7.55789C40.5255 7.55789 41.11 8.1414 41.11 8.86385C41.11 9.58629 40.5255 10.1698 39.8018 10.1698C39.0782 10.1698 38.4937 9.58629 38.4937 8.86385ZM34.6526 12.4483C34.6526 11.6425 35.3206 10.9756 36.1278 10.9756C36.935 10.9756 37.603 11.6425 37.603 12.4483C37.603 13.2541 36.935 13.921 36.1278 13.921C35.3206 13.921 34.6526 13.2541 34.6526 12.4483ZM52.6887 9.69744C52.6887 9.22507 53.0784 8.83606 53.5515 8.83606C54.0247 8.83606 54.4144 9.22507 54.4144 9.69744C54.4144 10.1698 54.0247 10.5588 53.5515 10.5588C53.0784 10.531 52.6887 10.142 52.6887 9.69744ZM48.458 11.059C48.458 10.4477 48.959 9.94752 49.5714 9.94752C50.1837 9.94752 50.6847 10.4477 50.6847 11.059C50.6847 11.6703 50.1837 12.1704 49.5714 12.1704C48.959 12.1982 48.458 11.6981 48.458 11.059ZM44.1438 13.004C44.1438 12.2816 44.7283 11.6981 45.452 11.6981C46.1757 11.6981 46.7602 12.2816 46.7602 13.004C46.7602 13.7265 46.1757 14.31 45.452 14.31C44.7283 14.31 44.1438 13.7265 44.1438 13.004ZM56.8916 15.9772C56.8916 15.5048 57.2812 15.1158 57.7544 15.1158C58.2276 15.1158 58.6172 15.5048 58.6172 15.9772C58.6172 16.4495 58.2276 16.8385 57.7544 16.8385C57.2812 16.8107 56.8916 16.4217 56.8916 15.9772ZM52.6052 17.2275C52.6052 16.6162 53.1062 16.1161 53.7185 16.1161C54.3309 16.1161 54.8319 16.6162 54.8319 17.2275C54.8319 17.8388 54.3309 18.339 53.7185 18.339C53.1062 18.339 52.6052 17.8388 52.6052 17.2275ZM48.1797 18.9781C48.1797 18.2556 48.7642 17.6721 49.4879 17.6721C50.2115 17.6721 50.796 18.2556 50.796 18.9781C50.796 19.7005 50.2115 20.284 49.4879 20.284C48.7642 20.284 48.1797 19.7005 48.1797 18.9781ZM43.5593 21.3121C43.5593 20.5063 44.2273 19.8395 45.0345 19.8395C45.8417 19.8395 46.5097 20.5063 46.5097 21.3121C46.5097 22.1179 45.8417 22.7848 45.0345 22.7848C44.1995 22.7848 43.5593 22.1457 43.5593 21.3121ZM55.2494 24.8132C55.2494 24.0908 55.8339 23.5073 56.5576 23.5073C57.2812 23.5073 57.8657 24.0908 57.8657 24.8132C57.8657 25.5357 57.2812 26.1192 56.5576 26.1192C55.8339 26.1192 55.2494 25.5357 55.2494 24.8132ZM49.5435 26.008C49.5435 25.2022 50.2115 24.5354 51.0187 24.5354C51.8259 24.5354 52.4939 25.2022 52.4939 26.008C52.4939 26.8138 51.8259 27.4807 51.0187 27.4807C50.1837 27.4807 49.5435 26.8138 49.5435 26.008ZM43.9768 28.2309C43.9768 27.3696 44.6727 26.6749 45.5355 26.6749C46.3984 26.6749 47.0942 27.3696 47.0942 28.2309C47.0942 29.0923 46.3984 29.787 45.5355 29.787C44.6727 29.8148 43.9768 29.0923 43.9768 28.2309ZM39.7183 31.4819C39.7183 30.5928 40.442 29.8703 41.3327 29.8703C42.2233 29.8703 42.947 30.5928 42.947 31.4819C42.947 32.3711 42.2233 33.0935 41.3327 33.0935C40.442 33.0935 39.7183 32.3711 39.7183 31.4819ZM36.7958 35.4832C36.7958 34.5384 37.5751 33.7604 38.5215 33.7604C39.4678 33.7604 40.2472 34.5384 40.2472 35.4832C40.2472 36.4279 39.4678 37.2059 38.5215 37.2059C37.5751 37.2059 36.7958 36.4279 36.7958 35.4832ZM34.3465 40.8737C34.3465 39.8734 35.1536 39.0398 36.1835 39.0398C37.1855 39.0398 38.0205 39.8456 38.0205 40.8737C38.0205 41.874 37.2133 42.7076 36.1835 42.7076C35.1536 42.7076 34.3465 41.874 34.3465 40.8737ZM33.9846 46.6255C33.9846 45.5974 34.8196 44.736 35.8773 44.736C36.9071 44.736 37.77 45.5696 37.77 46.6255C37.77 47.6536 36.935 48.515 35.8773 48.515C34.8196 48.4872 33.9846 47.6536 33.9846 46.6255ZM33.929 52.0716C33.929 50.988 34.7918 50.1266 35.8773 50.1266C36.9628 50.1266 37.8256 50.988 37.8256 52.0716C37.8256 53.1553 36.9628 54.0167 35.8773 54.0167C34.7918 54.0167 33.929 53.1553 33.929 52.0716ZM33.8733 57.74C33.8733 56.6286 34.764 55.7394 35.8773 55.7394C36.9906 55.7394 37.8813 56.6286 37.8813 57.74C37.8813 58.8515 36.9906 59.7407 35.8773 59.7407C34.764 59.7407 33.8733 58.8515 33.8733 57.74ZM27.0263 68.938C27.0263 67.8265 27.9169 66.9373 29.0303 66.9373C30.1436 66.9373 31.0343 67.8265 31.0343 68.938C31.0343 70.0494 30.1436 70.9386 29.0303 70.9386C27.9169 70.9386 27.0263 70.0494 27.0263 68.938ZM27.0263 63.3529C27.0263 62.2414 27.9169 61.3523 29.0303 61.3523C30.1436 61.3523 31.0343 62.2414 31.0343 63.3529C31.0343 64.4643 30.1436 65.3535 29.0303 65.3535C27.9169 65.3535 27.0263 64.4366 27.0263 63.3529ZM22.5173 24.452C22.5173 23.5073 23.2966 22.7292 24.2429 22.7292C25.1893 22.7292 25.9686 23.5073 25.9686 24.452C25.9686 25.3967 25.1893 26.1747 24.2429 26.1747C23.2966 26.147 22.5173 25.3967 22.5173 24.452ZM31.1735 6.25193C31.1735 5.52948 31.758 4.94597 32.4816 4.94597C33.2053 4.94597 33.7898 5.52948 33.7898 6.25193C33.7898 6.97438 33.2053 7.55789 32.4816 7.55789C31.758 7.55789 31.1735 6.97438 31.1735 6.25193ZM22.9348 16.394C22.9348 15.5326 23.6306 14.8379 24.4934 14.8379C25.3563 14.8379 26.0521 15.5326 26.0521 16.394C26.0521 17.2553 25.3563 17.95 24.4934 17.95C23.6306 17.9778 22.9348 17.2831 22.9348 16.394ZM26.7758 28.092C26.7758 27.1473 27.5551 26.3693 28.5014 26.3693C29.4478 26.3693 30.2271 27.1473 30.2271 28.092C30.2271 29.0367 29.4478 29.8148 28.5014 29.8148C27.5551 29.8148 26.7758 29.0645 26.7758 28.092ZM26.9428 19.7839C26.9428 18.8947 27.6664 18.1723 28.5571 18.1723C29.4478 18.1723 30.1715 18.8947 30.1715 19.7839C30.1715 20.673 29.4478 21.3955 28.5571 21.3955C27.6664 21.3955 26.9428 20.673 26.9428 19.7839ZM30.8395 24.1186C30.8395 23.2294 31.5631 22.5069 32.4538 22.5069C33.3445 22.5069 34.0681 23.2294 34.0681 24.1186C34.0681 25.0077 33.3445 25.7302 32.4538 25.7302C31.5631 25.7302 30.8395 25.0077 30.8395 24.1186ZM24.2429 0.861377C24.2429 0.389009 24.6326 0 25.1058 0C25.5789 0 25.9686 0.389009 25.9686 0.861377C25.9686 1.33375 25.5789 1.72275 25.1058 1.72275C24.6326 1.69497 24.2429 1.33375 24.2429 0.861377ZM27.3603 3.00093C27.3603 2.38963 27.8613 1.88947 28.4736 1.88947C29.0859 1.88947 29.587 2.38963 29.587 3.00093C29.587 3.61223 29.0859 4.11238 28.4736 4.11238C27.8613 4.11238 27.3603 3.61223 27.3603 3.00093ZM16.5609 4.33467C16.5609 3.8623 16.9506 3.47329 17.4237 3.47329C17.8969 3.47329 18.2866 3.8623 18.2866 4.33467C18.2866 4.80704 17.8969 5.19605 17.4237 5.19605C16.9227 5.19605 16.5609 4.80704 16.5609 4.33467ZM19.9566 6.19636C19.9566 5.58506 20.4576 5.0849 21.0699 5.0849C21.6823 5.0849 22.1833 5.58506 22.1833 6.19636C22.1833 6.80766 21.6823 7.30781 21.0699 7.30781C20.4576 7.30781 19.9566 6.80766 19.9566 6.19636ZM23.7976 8.86385C23.7976 8.1414 24.3821 7.55789 25.1058 7.55789C25.8294 7.55789 26.4139 8.1414 26.4139 8.86385C26.4139 9.58629 25.8294 10.1698 25.1058 10.1698C24.3821 10.1698 23.7976 9.58629 23.7976 8.86385ZM27.2768 12.4483C27.2768 11.6425 27.9448 10.9756 28.7519 10.9756C29.5591 10.9756 30.2271 11.6425 30.2271 12.4483C30.2271 13.2541 29.5591 13.921 28.7519 13.921C27.9448 13.921 27.2768 13.2541 27.2768 12.4483ZM30.8951 15.8104C30.8951 14.9491 31.591 14.2544 32.4538 14.2544C33.3166 14.2544 34.0125 14.9491 34.0125 15.8104C34.0125 16.6718 33.3166 17.3665 32.4538 17.3665C31.591 17.3943 30.8951 16.6718 30.8951 15.8104ZM10.4932 9.69744C10.4932 9.22507 10.8829 8.83606 11.356 8.83606C11.8292 8.83606 12.2189 9.22507 12.2189 9.69744C12.2189 10.1698 11.8292 10.5588 11.356 10.5588C10.8829 10.531 10.4932 10.142 10.4932 9.69744ZM14.1951 11.059C14.1951 10.4477 14.6961 9.94752 15.3084 9.94752C15.9207 9.94752 16.4217 10.4477 16.4217 11.059C16.4217 11.6703 15.9207 12.1704 15.3084 12.1704C14.6961 12.1982 14.1951 11.6981 14.1951 11.059ZM18.1474 13.004C18.1474 12.2816 18.7319 11.6981 19.4556 11.6981C20.1792 11.6981 20.7637 12.2816 20.7637 13.004C20.7637 13.7265 20.1792 14.31 19.4556 14.31C18.7319 14.31 18.1474 13.7265 18.1474 13.004ZM6.29036 15.9772C6.29036 15.5048 6.68003 15.1158 7.1532 15.1158C7.62636 15.1158 8.01603 15.5048 8.01603 15.9772C8.01603 16.4495 7.62636 16.8385 7.1532 16.8385C6.68003 16.8107 6.29036 16.4217 6.29036 15.9772ZM10.0479 17.2275C10.0479 16.6162 10.5489 16.1161 11.1612 16.1161C11.7735 16.1161 12.2745 16.6162 12.2745 17.2275C12.2745 17.8388 11.7735 18.339 11.1612 18.339C10.5489 18.339 10.0479 17.8388 10.0479 17.2275ZM14.1116 18.9781C14.1116 18.2556 14.6961 17.6721 15.4197 17.6721C16.1434 17.6721 16.7279 18.2556 16.7279 18.9781C16.7279 19.7005 16.1434 20.284 15.4197 20.284C14.6961 20.284 14.1116 19.7005 14.1116 18.9781ZM18.3979 21.3121C18.3979 20.5063 19.0659 19.8395 19.8731 19.8395C20.6802 19.8395 21.3483 20.5063 21.3483 21.3121C21.3483 22.1179 20.6802 22.7848 19.8731 22.7848C19.0659 22.7848 18.3979 22.1457 18.3979 21.3121ZM30.756 32.5656C30.756 31.6209 31.5353 30.8429 32.4816 30.8429C33.428 30.8429 34.2073 31.6209 34.2073 32.5656C34.2073 33.5103 33.428 34.2884 32.4816 34.2884C31.5075 34.2884 30.756 33.5381 30.756 32.5656ZM0 24.2297C0 23.7573 0.389668 23.3683 0.862837 23.3683C1.33601 23.3683 1.72567 23.7573 1.72567 24.2297C1.72567 24.7021 1.33601 25.0911 0.862837 25.0911C0.389668 25.0633 0 24.6743 0 24.2297ZM3.64618 24.3408C3.64618 23.7295 4.14718 23.2294 4.75952 23.2294C5.37185 23.2294 5.87286 23.7295 5.87286 24.3408C5.87286 24.9521 5.37185 25.4523 4.75952 25.4523C4.14718 25.4523 3.64618 24.9521 3.64618 24.3408ZM8.01603 24.8132C8.01603 24.0908 8.60053 23.5073 9.3242 23.5073C10.0479 23.5073 10.6324 24.0908 10.6324 24.8132C10.6324 25.5357 10.0479 26.1192 9.3242 26.1192C8.60053 26.1192 8.01603 25.5357 8.01603 24.8132ZM12.6085 26.008C12.6085 25.2022 13.2766 24.5354 14.0837 24.5354C14.8909 24.5354 15.5589 25.2022 15.5589 26.008C15.5589 26.8138 14.8909 27.4807 14.0837 27.4807C13.2766 27.4807 12.6085 26.8138 12.6085 26.008ZM17.7856 28.2309C17.7856 27.3696 18.4814 26.6749 19.3442 26.6749C20.2071 26.6749 20.9029 27.3696 20.9029 28.2309C20.9029 29.0923 20.2071 29.787 19.3442 29.787C18.4814 29.8148 17.7856 29.0923 17.7856 28.2309ZM21.9328 31.4819C21.9328 30.5928 22.6564 29.8703 23.5471 29.8703C24.4378 29.8703 25.1614 30.5928 25.1614 31.4819C25.1614 32.3711 24.4378 33.0935 23.5471 33.0935C22.6564 33.0935 21.9328 32.3711 21.9328 31.4819ZM24.6604 35.4832C24.6604 34.5384 25.4398 33.7604 26.3861 33.7604C27.3324 33.7604 28.1118 34.5384 28.1118 35.4832C28.1118 36.4279 27.3324 37.2059 26.3861 37.2059C25.4398 37.2059 24.6604 36.4279 24.6604 35.4832ZM26.9149 40.8737C26.9149 39.8734 27.7221 39.0398 28.7519 39.0398C29.754 39.0398 30.589 39.8456 30.589 40.8737C30.589 41.874 29.7818 42.7076 28.7519 42.7076C27.7221 42.7076 26.9149 41.874 26.9149 40.8737ZM27.1376 46.6255C27.1376 45.5974 27.9726 44.736 29.0303 44.736C30.0601 44.736 30.923 45.5696 30.923 46.6255C30.923 47.6536 30.088 48.515 29.0303 48.515C27.9726 48.4872 27.1376 47.6536 27.1376 46.6255ZM27.0819 52.0716C27.0819 50.988 27.9448 50.1266 29.0303 50.1266C30.1158 50.1266 30.9786 50.988 30.9786 52.0716C30.9786 53.1553 30.1158 54.0167 29.0303 54.0167C27.9448 54.0167 27.0819 53.1553 27.0819 52.0716ZM27.0263 57.74C27.0263 56.6286 27.9169 55.7394 29.0303 55.7394C30.1436 55.7394 31.0343 56.6286 31.0343 57.74C31.0343 58.8515 30.1436 59.7407 29.0303 59.7407C27.9169 59.7407 27.0263 58.8515 27.0263 57.74Z" fill="url(#paint0_linear)"/>
<defs>
<linearGradient id="paint0_linear" x1="62.4941" y1="0" x2="62.4941" y2="70.951" gradientUnits="userSpaceOnUse">
<stop stop-color="#FFC629"/>
<stop offset="1" stop-color="#F18A00"/>
</linearGradient>
</defs>
</svg>