<svg width="173" height="53" viewBox="0 0 173 53" fill="none" xmlns="http://www.w3.org/2000/svg">
<path d="M61.3975 11.494C61.3975 8.6205 63.6359 6.22592 66.6738 6.22592C68.5925 6.22592 69.7117 6.86447 70.671 7.8223L69.232 9.41869C68.4326 8.78013 67.6331 8.30122 66.6738 8.30122C64.915 8.30122 63.6359 9.73797 63.6359 11.494C63.6359 13.25 64.915 14.6868 66.6738 14.6868C67.793 14.6868 68.5925 14.2078 69.3919 13.5693L70.8309 15.006C69.7117 16.1235 68.5925 16.7621 66.6738 16.7621C63.6359 16.7621 61.3975 14.3675 61.3975 11.494Z" fill="#5E5E5D"/>
<path d="M76.267 6.22592H78.3455L82.6625 16.4428H80.2642L79.3048 14.2078H75.1477L74.1884 16.4428H71.95L76.267 6.22592ZM78.6653 12.2922L77.3862 8.93977L76.1071 12.2922H78.6653Z" fill="#5E5E5D"/>
<path d="M84.5813 6.38554H88.7384C91.1367 6.38554 92.5757 7.82229 92.5757 9.89759C92.5757 12.2922 90.8169 13.4096 88.4186 13.4096H86.6598V16.4428H84.4214V6.38554H84.5813ZM88.5785 11.494C89.6977 11.494 90.3373 10.8554 90.3373 9.89759C90.3373 8.93976 89.6977 8.3012 88.5785 8.3012H86.8197V11.494H88.5785Z" fill="#5E5E5D"/>
<path d="M96.893 6.38554H94.6545V16.6024H96.893V6.38554Z" fill="#5E5E5D"/>
<path d="M101.849 8.46084H98.6516V6.38554H107.126V8.46084H104.088V16.6024H101.849V8.46084Z" fill="#5E5E5D"/>
<path d="M111.443 6.22592H113.521L117.838 16.4428H115.44L114.481 14.2078H110.164L109.204 16.4428H106.966L111.443 6.22592ZM113.681 12.2922L112.402 8.93977L111.123 12.2922H113.681Z" fill="#5E5E5D"/>
<path d="M119.597 6.38554H121.835V14.5271H126.952V16.6024H119.597V6.38554Z" fill="#5E5E5D"/>
<path d="M131.109 6.38554H128.871V16.6024H131.109V6.38554Z" fill="#5E5E5D"/>
<path d="M133.188 15.006L134.467 13.4097C135.426 14.2078 136.385 14.6868 137.505 14.6868C138.464 14.6868 138.944 14.3675 138.944 13.7289C138.944 13.0904 138.624 12.9307 136.865 12.4518C134.786 11.9729 133.507 11.3344 133.507 9.25905C133.507 7.34339 134.946 6.22592 137.025 6.22592C138.464 6.22592 139.743 6.70483 140.862 7.50303L139.743 9.25905C138.784 8.6205 137.984 8.30122 137.025 8.30122C136.225 8.30122 135.746 8.6205 135.746 9.25905C135.746 9.8976 136.225 10.2169 137.984 10.5362C140.063 11.0151 141.182 11.8133 141.182 13.5693C141.182 15.6446 139.583 16.7621 137.505 16.7621C135.906 16.7621 134.307 16.1235 133.188 15.006Z" fill="#5E5E5D"/>
<path d="M143.421 6.38554H145.819L148.537 10.6958L151.255 6.38554H153.654V16.6024H151.415V9.89759L148.537 14.2078L145.659 9.89759V16.6024H143.421V6.38554Z" fill="#5E5E5D"/>
<path d="M155.892 11.494C155.892 8.6205 158.13 6.22592 161.328 6.22592C164.526 6.22592 166.764 8.6205 166.764 11.494C166.764 14.3675 164.526 16.7621 161.328 16.7621C158.29 16.7621 155.892 14.3675 155.892 11.494ZM164.526 11.494C164.526 9.73797 163.247 8.30122 161.488 8.30122C159.729 8.30122 158.45 9.73797 158.45 11.494C158.45 13.25 159.729 14.6868 161.488 14.6868C163.247 14.6868 164.526 13.25 164.526 11.494Z" fill="#5E5E5D"/>
<path d="M61.3975 28.0964C61.3975 25.0633 63.6359 22.6687 66.8337 22.6687C68.7524 22.6687 70.0315 23.3072 70.9908 24.2651L69.5518 25.8615C68.7524 25.0633 67.9529 24.744 66.8337 24.744C65.0749 24.744 63.7958 26.1807 63.7958 27.9368C63.7958 29.6928 65.0749 31.1295 66.8337 31.1295C67.9529 31.1295 68.7524 30.6506 69.5518 29.8524L70.9908 31.2892C69.8716 32.4066 68.7524 33.2048 66.6738 33.2048C63.6359 33.3645 61.3975 30.9699 61.3975 28.0964Z" fill="#5E5E5D"/>
<path d="M72.5896 28.0964C72.5896 25.0633 74.9879 22.6687 78.1857 22.6687C81.3835 22.6687 83.6219 25.0633 83.6219 27.9368C83.6219 30.8102 81.2236 33.3645 78.0258 33.3645C74.828 33.3645 72.5896 30.9699 72.5896 28.0964ZM81.2236 28.0964C81.2236 26.3404 79.9445 24.744 78.0258 24.744C76.1072 24.744 74.828 26.1807 74.828 27.9368C74.828 29.6928 76.1072 31.1295 78.0258 31.1295C79.9445 31.1295 81.2236 29.8524 81.2236 28.0964Z" fill="#5E5E5D"/>
<path d="M86.1802 22.8283H88.4186L93.2153 29.2139V22.8283H95.4538V33.2048H93.5351L88.5785 26.6596V33.2048H86.1802V22.8283Z" fill="#5E5E5D"/>
<path d="M98.012 31.6084L99.2911 30.0121C100.25 30.8102 101.21 31.2892 102.329 31.2892C103.288 31.2892 103.768 30.9699 103.768 30.3313C103.768 29.6928 103.448 29.5331 101.689 29.0542C99.6109 28.5753 98.1719 27.9368 98.1719 25.8615C98.1719 23.9458 99.6109 22.6687 101.849 22.6687C103.288 22.6687 104.727 23.1476 105.687 23.9458L104.567 25.7018C103.608 25.0633 102.809 24.744 101.849 24.744C101.05 24.744 100.57 25.2229 100.57 25.7018C100.57 26.3404 101.05 26.6596 102.809 27.1386C104.887 27.6175 106.166 28.4157 106.166 30.3313C106.166 32.4066 104.567 33.5241 102.329 33.5241C100.73 33.3645 99.1312 32.7259 98.012 31.6084Z" fill="#5E5E5D"/>
<path d="M108.085 28.0964C108.085 25.0633 110.323 22.6687 113.521 22.6687C115.44 22.6687 116.719 23.3072 117.678 24.2651L116.239 25.8615C115.44 25.0633 114.64 24.744 113.521 24.744C111.762 24.744 110.483 26.1807 110.483 27.9368C110.483 29.6928 111.762 31.1295 113.521 31.1295C114.64 31.1295 115.44 30.6506 116.239 29.8524L117.678 31.2892C116.559 32.4066 115.44 33.2048 113.361 33.2048C110.483 33.3645 108.085 30.9699 108.085 28.0964Z" fill="#5E5E5D"/>
<path d="M122.315 22.8283H120.077V33.2048H122.315V22.8283Z" fill="#5E5E5D"/>
<path d="M125.673 22.8283H133.507V24.9036H127.911V26.9789H132.708V29.0542H127.911V31.1295H133.507V33.2048H125.673V22.8283Z" fill="#5E5E5D"/>
<path d="M136.385 22.8283H138.464L143.261 29.2139V22.8283H145.499V33.2048H143.58L138.624 26.6596V33.2048H136.385V22.8283Z" fill="#5E5E5D"/>
<path d="M150.935 24.9036H147.738V22.8283H156.372V24.9036H153.174V33.2048H150.935V24.9036Z" fill="#5E5E5D"/>
<path d="M158.61 22.8283H166.445V24.9036H160.849V26.9789H165.645V29.0542H160.849V31.1295H166.445V33.2048H158.61V22.8283Z" fill="#5E5E5D"/>
<path d="M62.3567 39.5904H65.2347C66.0341 39.5904 66.6737 39.75 66.9935 40.2289C67.3133 40.5482 67.4731 40.8675 67.4731 41.3464C67.4731 42.3042 66.9935 42.6235 66.3539 42.9428C67.1534 43.2621 67.7929 43.5813 67.7929 44.5392C67.7929 45.6566 66.8336 46.4548 65.3946 46.4548H62.3567V39.5904ZM65.0748 42.6235C66.0341 42.6235 66.6737 42.1446 66.6737 41.3464C66.6737 40.7078 66.194 40.2289 65.2347 40.2289H63.1561V42.6235H65.0748ZM65.2347 45.6566C66.194 45.6566 66.8336 45.1777 66.8336 44.3795C66.8336 43.5813 66.194 43.2621 65.0748 43.2621H62.9962V45.6566H65.2347Z" fill="#5E5E5D"/>
<path d="M70.1914 39.5904H73.0694C73.8689 39.5904 74.5084 39.9096 74.9881 40.2289C75.3079 40.5482 75.4677 41.0271 75.4677 41.506C75.4677 42.6235 74.6683 43.2621 73.709 43.4217L75.7875 46.1356H74.8282L72.9095 43.4217H70.9909V46.2952H70.1914V39.5904ZM73.0694 43.1024C74.0287 43.1024 74.8282 42.6235 74.8282 41.6657C74.8282 40.8675 74.1886 40.3886 73.0694 40.3886H70.9909V43.1024H73.0694Z" fill="#5E5E5D"/>
<path d="M80.7439 39.5904H81.3835L84.4214 46.4548H83.6219L82.8225 44.6988H79.1451L78.5055 46.2952H77.7061L80.7439 39.5904ZM82.5027 43.9006L81.0637 40.3886L79.4648 43.9006H82.5027Z" fill="#5E5E5D"/>
<path d="M86.3401 45.3374L86.8198 44.6988C87.4593 45.3374 88.2588 45.6566 89.0582 45.6566C90.0175 45.6566 90.4972 45.1777 90.4972 44.5392C90.4972 43.9006 90.1774 43.5813 88.7384 43.2621C87.1395 42.9428 86.5 42.4639 86.5 41.3464C86.5 40.2289 87.4593 39.4307 88.7384 39.4307C89.6978 39.4307 90.3373 39.75 91.1368 40.2289L90.6571 40.8675C90.0175 40.3886 89.378 40.0693 88.7384 40.0693C87.939 40.0693 87.2994 40.5482 87.2994 41.1868C87.2994 41.8253 87.6192 42.1446 89.0582 42.4639C90.4972 42.7831 91.2967 43.4217 91.2967 44.3795C91.2967 45.497 90.3373 46.2952 89.0582 46.2952C87.939 46.4548 87.1395 46.1355 86.3401 45.3374Z" fill="#5E5E5D"/>
<path d="M94.6544 39.5904H93.855V46.4548H94.6544V39.5904Z" fill="#5E5E5D"/>
<path d="M97.5322 39.5904H98.3317V45.6566H102.009V46.2952H97.5322V39.5904Z" fill="#5E5E5D"/>
<path d="M29.8992 29.8524C37.8936 28.256 43.9694 21.2319 43.9694 12.7711C43.9694 11.6536 43.8095 10.5362 43.6496 9.41868C42.5304 9.25904 41.4112 9.0994 40.1321 9.0994C34.5359 9.0994 29.5794 11.6536 26.3816 15.6446C28.7799 18.6777 30.2189 22.3494 30.2189 26.5C30.3788 27.6175 30.2189 28.7349 29.8992 29.8524Z" fill="#F8B133"/>
<path d="M29.8993 29.8524C29.7394 30.8102 29.4196 31.7681 29.0999 32.7259C35.4954 35.5994 43.33 34.3223 48.6063 29.0542C50.525 27.1386 51.964 24.9036 52.7634 22.3494C52.9233 22.988 52.9233 23.7861 52.9233 24.4247C52.2838 16.4428 48.2865 9.41868 42.2108 4.9488C44.2893 6.54518 46.208 8.46085 47.8069 10.5361C46.5278 9.89759 45.0888 9.41868 43.6498 9.0994C43.8096 10.2169 43.9695 11.3343 43.9695 12.4518C43.9695 21.2319 37.8938 28.256 29.8993 29.8524Z" fill="#EE7B0F"/>
<path d="M31.8178 52.3614C32.1376 52.3614 32.2975 52.2018 32.4574 52.2018C32.6173 52.2018 32.7772 52.0422 33.0969 52.0422C33.2568 52.0422 33.5766 51.8825 33.7365 51.8825C41.7309 49.6476 48.1265 43.741 51.1644 36.0783C51.1644 35.9187 51.3243 35.759 51.3243 35.5994V35.4398C51.3243 35.2801 51.4842 35.1205 51.4842 34.9608C51.4842 34.8012 51.4842 34.8012 51.6441 34.6416C51.6441 34.4819 51.6441 34.4819 51.804 34.3223C51.804 34.1627 51.9638 34.003 51.9638 33.8434V33.6837C52.1237 33.2048 52.2836 32.7259 52.2836 32.247C52.2836 32.247 52.2836 32.247 52.2836 32.0874C52.2836 31.9277 52.4435 31.6084 52.4435 31.4488V31.2892C52.4435 31.1295 52.4435 30.9699 52.6034 30.6506V30.491C52.6034 30.3313 52.6034 30.1717 52.7633 30.012V29.8524C52.7633 29.6928 52.7633 29.5331 52.7633 29.3735V29.2139C52.7633 29.0542 52.7633 28.7349 52.7633 28.5753V28.4157C52.7633 28.256 52.7633 27.9367 52.7633 27.7771C52.7633 27.6175 52.7633 27.6175 52.7633 27.4578C52.7633 27.2982 52.7633 27.1386 52.7633 26.9789C52.7633 26.8193 52.7633 26.8193 52.7633 26.6596C52.7633 26.5 52.7633 26.3404 52.7633 26.3404C52.7633 26.1807 52.7633 26.0211 52.7633 25.8614C52.7633 25.7018 52.7633 25.7018 52.7633 25.5422C52.7633 25.3825 52.7633 25.2229 52.7633 25.0633C52.7633 24.9036 52.7633 24.744 52.7633 24.744V24.5843C52.7633 23.9458 52.6034 23.1476 52.6034 22.509C51.804 24.9036 50.365 27.2982 48.4463 29.2139C43.1699 34.4819 35.3354 35.5994 28.9398 32.8855C28.3003 34.4819 27.3409 36.0783 26.3816 37.5151C29.5794 41.506 34.5359 44.0602 40.1321 44.0602C42.8502 44.0602 45.4084 43.4217 47.8067 42.3042C43.4897 48.2108 36.6145 52.2018 28.9398 53C29.2596 53 29.5794 53 29.8992 52.8404C30.3788 52.8404 30.6986 52.6807 31.1783 52.6807C31.498 52.5211 31.6579 52.5211 31.8178 52.3614Z" fill="#E8500E"/>
<path d="M22.8643 27.9368C22.8643 27.4578 22.8643 26.9789 22.8643 26.5C22.8643 22.3494 24.3033 18.6777 26.7017 15.6446C24.9429 13.4096 22.7044 11.6536 20.1462 10.5361C17.7479 16.2831 18.7072 22.988 22.8643 27.9368Z" fill="#62C2D5"/>
<path d="M30.5389 0.319284C28.1406 1.11748 25.7423 2.55422 23.8236 4.46989C22.0648 6.22591 20.7857 8.30121 19.8264 10.5362C22.3846 11.6536 24.623 13.4096 26.3818 15.6446C29.5796 11.6536 34.5362 9.0994 40.1323 9.0994C41.2515 9.0994 42.5306 9.25904 43.6498 9.41868C43.3301 7.98193 42.8504 6.54519 42.2108 5.26808C37.734 2.07531 32.2977 7.02403e-06 26.3818 7.02403e-06C26.2219 7.02403e-06 25.9022 7.02403e-06 25.7423 7.02403e-06H25.5824C25.4225 7.02403e-06 25.4225 7.02403e-06 25.2626 7.02403e-06C25.1027 7.02403e-06 24.9428 7.02403e-06 24.7829 7.02403e-06H24.623C24.4632 7.02403e-06 24.1434 7.02403e-06 23.9835 7.02403e-06C21.2654 0.319284 18.7072 0.957838 16.1489 1.91567C20.7857 0.159646 25.7423 -0.478909 30.5389 0.319284Z" fill="#006665"/>
<path d="M42.2107 5.26808C42.8502 6.54519 43.3299 7.98194 43.6497 9.41868C45.0887 9.73796 46.5277 10.2169 47.8068 10.8554C46.3678 8.62049 44.4491 6.70483 42.2107 5.26808Z" fill="#007C7D"/>
<path d="M9.43355 9.41868C9.11377 10.5362 9.11377 11.6536 9.11377 12.7711C9.11377 21.2319 15.1896 28.256 23.184 29.8524C23.0241 29.2139 23.0241 28.5753 22.8642 27.9368C18.7071 22.988 17.7478 16.2831 19.9862 10.5362C17.7478 9.57832 15.3494 9.0994 12.7912 9.0994C11.672 9.0994 10.5528 9.0994 9.43355 9.41868Z" fill="#0092BD"/>
<path d="M9.43359 9.41867C10.5528 9.0994 11.672 9.0994 12.7913 9.0994C15.3495 9.0994 17.7478 9.57831 19.8264 10.5361C20.6258 8.3012 22.0648 6.2259 23.8236 4.46988C25.7423 2.55422 27.9807 1.11747 30.539 0.319276C25.7423 -0.478917 20.7857 0.159637 16.3088 2.0753C16.3088 2.0753 16.3088 2.0753 16.1489 2.0753C15.989 2.23494 15.8292 2.23494 15.6693 2.39458C15.5094 2.39458 15.5094 2.55422 15.3495 2.55422C15.1896 2.55422 15.0297 2.71385 15.0297 2.71385C14.8698 2.71385 14.7099 2.87349 14.55 2.87349C14.55 2.87349 14.3902 2.87349 14.3902 3.03313C14.0704 3.03313 13.9105 3.19277 13.7506 3.19277C13.7506 3.19277 13.7506 3.19277 13.5907 3.19277C13.4308 3.51205 13.2709 3.51205 13.111 3.67169C12.3116 4.1506 11.5122 4.62952 10.8726 5.10843C10.233 6.54518 9.75337 7.82229 9.43359 9.41867Z" fill="#007C7D"/>
<path d="M5.11647 42.1446C7.35492 43.2621 10.073 43.9006 12.7912 43.9006C18.3873 43.9006 23.3438 41.3464 26.5416 37.3554C24.7828 35.2801 23.6636 32.7259 23.0241 29.8524C15.0296 28.256 8.95381 21.2319 8.95381 12.7711C8.95381 11.6536 9.1137 10.3765 9.27359 9.41868C7.83459 9.73796 6.55548 10.2169 5.11647 10.8554C6.71536 8.62049 8.63403 6.86447 10.7126 5.26808C9.59337 6.06627 8.63403 6.86447 7.6747 7.8223C7.19503 8.46085 6.55548 9.09941 5.91592 9.73796C5.91592 9.8976 5.75603 10.0572 5.59614 10.2169L5.43625 10.3765C5.43625 10.5362 5.27636 10.5362 5.27636 10.6958C5.27636 10.8554 5.11647 10.8554 5.11647 11.0151C4.95658 11.0151 4.95658 11.1747 4.7967 11.1747C4.7967 11.3343 4.63681 11.3343 4.63681 11.494C4.63681 11.6536 4.47692 11.6536 4.47692 11.8133C4.47692 11.9729 4.31703 11.9729 4.31703 12.1325C4.31703 12.2922 4.15714 12.2922 4.15714 12.4518C3.99725 12.6115 3.83736 12.6115 3.83736 12.7711L3.67747 12.9307C3.51758 13.25 3.51758 13.4096 3.35769 13.5693C3.1978 13.7289 3.1978 13.8886 3.1978 13.8886C3.1978 14.0482 3.03792 14.0482 3.03792 14.2078C3.03792 14.3675 2.87803 14.5271 2.87803 14.5271C2.87803 14.5271 2.87803 14.6868 2.71814 14.6868C2.71814 14.8464 2.55825 15.006 2.55825 15.1657V15.3253C1.11925 18.3584 0.319801 21.7109 0.159912 25.0633C0.159912 25.0633 0.159912 25.0633 0.159912 25.2229C0.159912 25.3825 0.159912 25.5422 0.159912 25.8615C0.159912 29.0542 0.639579 32.247 1.59891 35.2801C1.59891 35.4398 1.7588 35.5994 1.7588 35.759V35.9187C1.7588 36.0783 1.91869 36.238 1.91869 36.3976C1.91869 36.3976 1.91869 36.5572 2.07858 36.5572C2.07858 36.7169 2.23847 36.7169 2.23847 36.8765C2.23847 37.0362 2.39836 37.0362 2.39836 37.1958C2.39836 37.1958 2.39836 37.3554 2.55825 37.3554C2.55825 37.5151 2.71814 37.6747 2.71814 37.8344V37.994C2.71814 38.1536 2.87803 38.3133 2.87803 38.4729C3.03792 38.6325 3.03792 38.7922 3.1978 38.9518C6.2357 44.5392 11.3521 49.009 17.4279 51.244C17.5878 51.244 17.7477 51.4036 17.9076 51.4036C17.9076 51.4036 17.9076 51.4036 18.0675 51.4036C18.2274 51.4036 18.3873 51.5633 18.5472 51.5633H18.707C18.8669 51.5633 19.0268 51.7229 19.1867 51.7229H19.3466C19.5065 51.7229 19.6664 51.8825 19.8263 51.8825H19.9862C20.146 51.8825 20.3059 51.8825 20.4658 52.0422H20.6257C20.7856 52.0422 20.9455 52.0422 21.1054 52.2018H21.2653C21.4252 52.2018 21.5851 52.2018 21.7449 52.3615H21.9048C22.0647 52.3615 22.2246 52.3615 22.3845 52.5211C22.3845 52.5211 22.3845 52.5211 22.5444 52.5211C22.7043 52.5211 23.0241 52.5211 23.1839 52.6807C23.5037 52.6807 23.8235 52.6807 24.1433 52.8404C16.3087 52.2018 9.59337 48.0512 5.11647 42.1446Z" fill="#007CA5"/>
<path d="M27.1811 53C27.341 53 27.5009 53 27.6608 53C27.8207 53 27.9806 53 28.1405 53H28.3004C28.4602 53 28.78 53 28.9399 53C36.6146 52.3614 43.4898 48.2108 47.8068 42.3042C45.5684 43.4217 42.8503 44.0602 40.1321 44.0602C34.536 44.0602 29.5795 41.506 26.3817 37.5151C23.1839 41.506 18.2273 44.0602 12.6312 44.0602C9.91311 44.0602 7.35488 43.4217 4.95654 42.3042C9.27355 48.2108 16.1488 52.2018 23.8235 53C24.1432 53 24.3031 53 24.6229 53C25.1026 53 25.7421 53 26.2218 53C26.7015 53 26.8613 53 27.1811 53Z" fill="#BD3010"/>
<path d="M5.11646 10.8554C6.39557 10.2169 7.83457 9.73796 9.27357 9.41868C9.59335 7.98194 10.073 6.54519 10.7126 5.26808C8.63401 6.70483 6.71535 8.62049 5.11646 10.8554Z" fill="#009599"/>
<path d="M168.843 24.2651C168.843 23.1476 169.802 22.1898 170.922 22.1898C172.041 22.1898 173 23.1476 173 24.2651C173 25.3825 172.041 26.3404 170.922 26.3404C169.802 26.3404 168.843 25.3825 168.843 24.2651ZM172.68 24.2651C172.68 23.3072 171.881 22.509 170.922 22.509C169.962 22.509 169.163 23.3072 169.163 24.2651C169.163 25.2229 169.962 26.0211 170.922 26.0211C171.881 26.0211 172.68 25.2229 172.68 24.2651ZM170.122 23.1476H171.081C171.401 23.1476 171.561 23.1476 171.721 23.3072C171.881 23.4669 171.881 23.6265 171.881 23.7862C171.881 24.1054 171.721 24.2651 171.401 24.4247L171.881 25.2229H171.401L170.922 24.5843H170.442V25.2229H170.122V23.1476ZM171.081 24.1054C171.401 24.1054 171.561 23.9458 171.561 23.7862C171.561 23.6265 171.401 23.4669 171.081 23.4669H170.602V24.1054H171.081Z" fill="#5E5E5D"/>
<path d="M45.7283 50.6054C45.7283 49.488 46.6876 48.5301 47.8068 48.5301C48.9261 48.5301 49.8854 49.488 49.8854 50.6054C49.8854 51.7229 48.9261 52.6807 47.8068 52.6807C46.6876 52.6807 45.7283 51.7229 45.7283 50.6054ZM49.5656 50.6054C49.5656 49.6476 48.7662 48.8494 47.8068 48.8494C46.8475 48.8494 46.048 49.6476 46.048 50.6054C46.048 51.5633 46.8475 52.3615 47.8068 52.3615C48.9261 52.3615 49.5656 51.5633 49.5656 50.6054ZM47.0074 49.488H47.9667C48.2865 49.488 48.4464 49.488 48.6063 49.6476C48.7662 49.8072 48.7662 49.9669 48.7662 50.1265C48.7662 50.4458 48.6063 50.6054 48.2865 50.7651L48.7662 51.5633H48.2865L47.9667 50.9247H47.4871V51.5633H47.1673V49.488H47.0074ZM47.9667 50.6054C48.2865 50.6054 48.4464 50.4458 48.4464 50.2862C48.4464 50.1265 48.2865 49.9669 47.9667 49.9669H47.4871V50.6054H47.9667Z" fill="#5E5E5D"/>
</svg>
