<?xml version="1.0" encoding="utf-8"?>
<!-- Generator: Adobe Illustrator 24.1.0, SVG Export Plug-In . SVG Version: 6.00 Build 0)  -->
<svg version="1.1" id="Layer_1" xmlns="http://www.w3.org/2000/svg" xmlns:xlink="http://www.w3.org/1999/xlink" x="0px" y="0px"
	 viewBox="0 0 224.1 83.1" style="enable-background:new 0 0 224.1 83.1;" xml:space="preserve">
<style type="text/css">
	.st0{fill:#00AEEF;}
	.st1{fill:#919195;}
	.st2{fill:none;stroke:#EC008C;stroke-width:0.5;}
</style>
<path class="st0" d="M4.1,64.7V28h32.6v9.9h-21v10h18.9v9.9H15.7v4.8c0,4.2,1.1,5.8,5.2,5.8h16.8v9.9h-21
	C8.4,78.4,4.1,73.1,4.1,64.7"/>
<polygon class="st0" points="55,37.9 41.4,37.9 41.4,28 80.2,28 80.2,37.9 66.6,37.9 66.6,78.4 55,78.4 "/>
<polygon class="st0" points="84.8,28 96.3,28 96.3,47.4 114.2,47.4 114.2,28 125.8,28 125.8,78.4 114.2,78.4 114.2,57.3 96.3,57.3 
	96.3,78.4 84.8,78.4 "/>
<path class="st0" d="M184.5,76.6v-9.7h0.5c2.9,0.9,9.1,2.1,13.6,2.1h2.6c4.2,0,7.3-1.3,7.3-5.5c0-3.2-2.8-4.4-5.8-5.2l-7.9-2.1
	c-5.8-1.5-10.5-5.5-10.5-14.2c0-10.2,8.4-14.4,18.6-14.4h2.6c3.2,0,9.5,0.8,12.4,1.9V39h-0.5c-2.6-0.7-8.9-1.5-11.8-1.5h-2.3
	c-3.7,0-6.9,0.7-6.9,4.4c0,2.9,2.1,4,4.8,4.7l7.9,2.1c7.6,2,11.6,6.5,11.6,14.6c0,11.3-8.1,15.5-19.4,15.5h-2.6
	C194.7,78.9,188.1,77.8,184.5,76.6"/>
<path class="st0" d="M136.7,60.6l5.5-1.2c-0.9-1.9-1.4-4-1.4-6.2c0-8.3,6.7-15,15-15c3.5,0,6.7,1.2,9.3,3.2l6.1-1.5l2.2-5.4
	c-4.6-4.3-10.8-7-17.6-7c-14.2,0-25.7,11.5-25.7,25.7c0,4.9,1.4,9.4,3.7,13.3L136.7,60.6z"/>
<path class="st0" d="M177.8,39.9l-2.8,6l-5.5,1.2c0.9,1.9,1.4,4,1.4,6.2c0,8.3-6.7,15-15,15c-3.5,0-6.7-1.2-9.3-3.2l-6.1,1.5
	l-2.2,5.4c4.6,4.3,10.8,7,17.6,7c14.2,0,25.7-11.5,25.7-25.7C181.5,48.3,180.2,43.8,177.8,39.9"/>
<rect x="4.1" y="2.1" class="st1" width="1.3" height="15.9"/>
<path class="st1" d="M18.3,18L11.1,5.4c-0.3-0.6-0.6-1.2-0.8-1.7h-0.1c0.1,0.5,0.1,1,0.1,1.7V18H9.1V2.1h1.6l7.2,12.6
	c0.3,0.5,0.5,1.1,0.7,1.6h0.1c0-0.5-0.1-1.1-0.1-1.6V2.1h1.2V18H18.3z"/>
<path class="st1" d="M27.1,18.3c-1.2,0-2.3-0.1-4.5-0.7l0.4-1.2c2.4,0.7,3.1,0.8,4.2,0.8c2.2,0,3.3-1.1,3.3-3c0-1.5-0.7-2.2-2.3-2.9
	l-2.6-1.1c-2.3-1-3.1-2.1-3.1-3.9c0-2.6,1.9-4.3,4.9-4.3c1,0,2,0.1,3.6,0.4l-0.3,1.2c-1.7-0.3-2.5-0.5-3.4-0.5c-2.1,0-3.5,1-3.5,3.1
	c0,1.3,0.6,2,2.3,2.7l2.5,1c2.1,0.9,3.1,2,3.1,4.1C31.8,16.9,29.7,18.3,27.1,18.3"/>
<polygon class="st1" points="38.6,3.3 38.6,18 37.3,18 37.3,3.3 33.1,3.3 33.1,2.1 42.8,2.1 42.8,3.3 "/>
<rect x="45.1" y="2.1" class="st1" width="1.3" height="15.9"/>
<polygon class="st1" points="54.2,3.3 54.2,18 52.9,18 52.9,3.3 48.7,3.3 48.7,2.1 58.5,2.1 58.5,3.3 "/>
<path class="st1" d="M66,18.3c-3.5,0-5.3-1.4-5.3-5.3V2.1H62v10.8c0,2.7,1,4.1,4,4.1c3,0,4.1-1.5,4.1-4.1V2.1h1.3v10.8
	C71.5,16.8,69.4,18.3,66,18.3"/>
<polygon class="st1" points="79.2,3.3 79.2,18 77.9,18 77.9,3.3 73.7,3.3 73.7,2.1 83.4,2.1 83.4,3.3 "/>
<path class="st1" d="M90.4,3.1c-2.9,0-4.7,1.6-4.7,7c0,5.6,2,7,4.7,7c2.7,0,4.7-1.3,4.7-7C95.1,4.7,93.3,3.1,90.4,3.1 M90.4,18.3
	c-3.7,0-6.1-2.2-6.1-8.1c0-6,2.5-8.2,6.1-8.2c3.7,0,6.1,2.2,6.1,8.2C96.5,16,94.1,18.3,90.4,18.3"/>
</svg>
